<mxfile host="app.diagrams.net" modified="2021-12-26T00:36:08.000Z" agent="5.0 (Windows NT 10.0; Win64; x64) AppleWebKit/537.36 (KHTML, like Gecko) Chrome/96.0.4664.110 Safari/537.36" etag="XEpBTGYKwCBKDYzgpI5T" version="16.0.3" type="github" pages="12">
  <diagram id="DXeW358_ynHy9iwM-R6I" name="main">
    <mxGraphModel dx="575" dy="2109" grid="1" gridSize="10" guides="1" tooltips="1" connect="1" arrows="1" fold="1" page="1" pageScale="1" pageWidth="827" pageHeight="1169" math="0" shadow="0">
      <root>
        <mxCell id="1cPZwZX00cQFC3dF3ciB-0" />
        <mxCell id="1cPZwZX00cQFC3dF3ciB-1" parent="1cPZwZX00cQFC3dF3ciB-0" />
        <mxCell id="KkhMD6KG5qypeAH6Idfi-1" value="main&lt;br&gt;Начало" style="strokeWidth=2;html=1;shape=mxgraph.flowchart.terminator;whiteSpace=wrap;fontFamily=Times New Roman;fontSize=14;" vertex="1" parent="1cPZwZX00cQFC3dF3ciB-1">
          <mxGeometry x="100" y="290" width="120" height="40" as="geometry" />
        </mxCell>
        <mxCell id="KkhMD6KG5qypeAH6Idfi-2" value="Инициализация главного окна приложения" style="rounded=0;whiteSpace=wrap;html=1;strokeWidth=2;fontFamily=Times New Roman;fontSize=14;" vertex="1" parent="1cPZwZX00cQFC3dF3ciB-1">
          <mxGeometry x="100" y="350" width="120" height="80" as="geometry" />
        </mxCell>
        <mxCell id="KkhMD6KG5qypeAH6Idfi-3" value="" style="endArrow=classic;html=1;rounded=0;fontFamily=Times New Roman;fontSize=14;" edge="1" parent="1cPZwZX00cQFC3dF3ciB-1" source="KkhMD6KG5qypeAH6Idfi-1">
          <mxGeometry width="50" height="50" relative="1" as="geometry">
            <mxPoint x="160" y="330" as="sourcePoint" />
            <mxPoint x="160" y="350" as="targetPoint" />
          </mxGeometry>
        </mxCell>
        <mxCell id="KkhMD6KG5qypeAH6Idfi-4" value="" style="endArrow=classic;html=1;rounded=0;fontFamily=Times New Roman;fontSize=14;" edge="1" parent="1cPZwZX00cQFC3dF3ciB-1">
          <mxGeometry width="50" height="50" relative="1" as="geometry">
            <mxPoint x="160" y="430" as="sourcePoint" />
            <mxPoint x="160" y="450" as="targetPoint" />
          </mxGeometry>
        </mxCell>
        <mxCell id="KkhMD6KG5qypeAH6Idfi-5" value="Стартовое меню&lt;br&gt;main_menu" style="shape=process;whiteSpace=wrap;html=1;backgroundOutline=1;strokeWidth=2;fontFamily=Times New Roman;fontSize=14;" vertex="1" parent="1cPZwZX00cQFC3dF3ciB-1">
          <mxGeometry x="100" y="450" width="120" height="80" as="geometry" />
        </mxCell>
        <mxCell id="KkhMD6KG5qypeAH6Idfi-7" value="Инициализация&lt;br&gt;переменных" style="rounded=0;whiteSpace=wrap;html=1;strokeWidth=2;fontFamily=Times New Roman;fontSize=14;" vertex="1" parent="1cPZwZX00cQFC3dF3ciB-1">
          <mxGeometry x="100" y="550" width="120" height="80" as="geometry" />
        </mxCell>
        <mxCell id="vIIgwHY61a7871PPkE8j-2" value="Выбор пункта меню&lt;br&gt;menuItem" style="shape=process;whiteSpace=wrap;html=1;backgroundOutline=1;strokeWidth=2;fontFamily=Times New Roman;fontSize=12;align=center;" vertex="1" parent="1cPZwZX00cQFC3dF3ciB-1">
          <mxGeometry x="100" y="650" width="120" height="80" as="geometry" />
        </mxCell>
        <mxCell id="vIIgwHY61a7871PPkE8j-3" value="" style="endArrow=classic;html=1;rounded=0;fontFamily=Times New Roman;fontSize=14;" edge="1" parent="1cPZwZX00cQFC3dF3ciB-1" source="vIIgwHY61a7871PPkE8j-2">
          <mxGeometry width="50" height="50" relative="1" as="geometry">
            <mxPoint x="160" y="730" as="sourcePoint" />
            <mxPoint x="160" y="750" as="targetPoint" />
          </mxGeometry>
        </mxCell>
        <mxCell id="vIIgwHY61a7871PPkE8j-4" value="" style="endArrow=classic;html=1;rounded=0;fontFamily=Times New Roman;fontSize=14;" edge="1" parent="1cPZwZX00cQFC3dF3ciB-1" source="KkhMD6KG5qypeAH6Idfi-5">
          <mxGeometry width="50" height="50" relative="1" as="geometry">
            <mxPoint x="160" y="530" as="sourcePoint" />
            <mxPoint x="160" y="550" as="targetPoint" />
          </mxGeometry>
        </mxCell>
        <mxCell id="vIIgwHY61a7871PPkE8j-5" value="" style="endArrow=classic;html=1;rounded=0;fontFamily=Times New Roman;fontSize=14;" edge="1" parent="1cPZwZX00cQFC3dF3ciB-1" source="KkhMD6KG5qypeAH6Idfi-7">
          <mxGeometry width="50" height="50" relative="1" as="geometry">
            <mxPoint x="160" y="630" as="sourcePoint" />
            <mxPoint x="160" y="650" as="targetPoint" />
          </mxGeometry>
        </mxCell>
        <mxCell id="vIIgwHY61a7871PPkE8j-6" value="Пункт меню" style="rhombus;whiteSpace=wrap;html=1;strokeWidth=2;fontFamily=Times New Roman;fontSize=14;" vertex="1" parent="1cPZwZX00cQFC3dF3ciB-1">
          <mxGeometry x="100" y="750" width="120" height="80" as="geometry" />
        </mxCell>
        <mxCell id="vIIgwHY61a7871PPkE8j-7" value="" style="endArrow=none;html=1;rounded=0;fontFamily=Times New Roman;fontSize=14;" edge="1" parent="1cPZwZX00cQFC3dF3ciB-1">
          <mxGeometry width="50" height="50" relative="1" as="geometry">
            <mxPoint x="160" y="960" as="sourcePoint" />
            <mxPoint x="160" y="830" as="targetPoint" />
          </mxGeometry>
        </mxCell>
        <mxCell id="vIIgwHY61a7871PPkE8j-8" value="" style="endArrow=classic;html=1;entryX=0;entryY=0.5;entryDx=0;entryDy=0;rounded=0;fontFamily=Times New Roman;fontSize=14;" edge="1" target="vIIgwHY61a7871PPkE8j-9" parent="1cPZwZX00cQFC3dF3ciB-1">
          <mxGeometry width="50" height="50" relative="1" as="geometry">
            <mxPoint x="160" y="859.5" as="sourcePoint" />
            <mxPoint x="210" y="859.5" as="targetPoint" />
          </mxGeometry>
        </mxCell>
        <mxCell id="vIIgwHY61a7871PPkE8j-9" value="Использовать существующий файл&lt;br&gt;loadFile" style="shape=process;whiteSpace=wrap;html=1;backgroundOutline=1;strokeWidth=2;fontFamily=Times New Roman;fontSize=14;" vertex="1" parent="1cPZwZX00cQFC3dF3ciB-1">
          <mxGeometry x="220" y="820" width="120" height="80" as="geometry" />
        </mxCell>
        <mxCell id="vIIgwHY61a7871PPkE8j-10" value="" style="endArrow=classic;html=1;entryX=0;entryY=0.5;entryDx=0;entryDy=0;rounded=0;fontFamily=Times New Roman;fontSize=14;" edge="1" target="vIIgwHY61a7871PPkE8j-11" parent="1cPZwZX00cQFC3dF3ciB-1">
          <mxGeometry width="50" height="50" relative="1" as="geometry">
            <mxPoint x="160" y="959.5" as="sourcePoint" />
            <mxPoint x="210" y="959.5" as="targetPoint" />
          </mxGeometry>
        </mxCell>
        <mxCell id="vIIgwHY61a7871PPkE8j-11" value="Создать новый список&lt;br&gt;beg = end = 0" style="rounded=0;whiteSpace=wrap;html=1;strokeWidth=2;fontFamily=Times New Roman;fontSize=14;fontColor=rgb(0, 0, 0);align=center;strokeColor=rgb(0, 0, 0);fillColor=rgb(255, 255, 255);" vertex="1" parent="1cPZwZX00cQFC3dF3ciB-1">
          <mxGeometry x="220" y="920" width="120" height="80" as="geometry" />
        </mxCell>
        <mxCell id="vIIgwHY61a7871PPkE8j-16" value="" style="endArrow=none;html=1;fontFamily=Times New Roman;fontSize=14;fontColor=rgb(0, 0, 0);align=center;strokeColor=rgb(0, 0, 0);" edge="1" parent="1cPZwZX00cQFC3dF3ciB-1" source="vIIgwHY61a7871PPkE8j-9">
          <mxGeometry width="50" height="50" relative="1" as="geometry">
            <mxPoint x="350" y="860" as="sourcePoint" />
            <mxPoint x="370" y="860" as="targetPoint" />
          </mxGeometry>
        </mxCell>
        <mxCell id="vIIgwHY61a7871PPkE8j-17" value="" style="endArrow=none;html=1;fontFamily=Times New Roman;fontSize=14;fontColor=rgb(0, 0, 0);align=center;strokeColor=rgb(0, 0, 0);" edge="1" parent="1cPZwZX00cQFC3dF3ciB-1">
          <mxGeometry width="50" height="50" relative="1" as="geometry">
            <mxPoint x="340" y="960" as="sourcePoint" />
            <mxPoint x="360" y="960" as="targetPoint" />
          </mxGeometry>
        </mxCell>
        <mxCell id="vIIgwHY61a7871PPkE8j-18" value="" style="endArrow=classic;html=1;rounded=0;fontFamily=Times New Roman;fontSize=14;" edge="1" parent="1cPZwZX00cQFC3dF3ciB-1">
          <mxGeometry width="50" height="50" relative="1" as="geometry">
            <mxPoint x="370" y="860" as="sourcePoint" />
            <mxPoint x="370" y="910" as="targetPoint" />
          </mxGeometry>
        </mxCell>
        <mxCell id="3fG_CCsMFPw_mHlSEDTY-1" value="Выбор пункта меню&lt;br&gt;menuItem" style="shape=process;whiteSpace=wrap;html=1;backgroundOutline=1;strokeWidth=2;fontFamily=Times New Roman;fontSize=12;align=center;" vertex="1" parent="1cPZwZX00cQFC3dF3ciB-1">
          <mxGeometry x="240" y="120" width="120" height="80" as="geometry" />
        </mxCell>
        <mxCell id="3fG_CCsMFPw_mHlSEDTY-2" value="" style="endArrow=classic;html=1;rounded=0;fontFamily=Times New Roman;fontSize=14;" edge="1" parent="1cPZwZX00cQFC3dF3ciB-1" source="3fG_CCsMFPw_mHlSEDTY-1">
          <mxGeometry width="50" height="50" relative="1" as="geometry">
            <mxPoint x="300" y="200" as="sourcePoint" />
            <mxPoint x="300" y="220" as="targetPoint" />
          </mxGeometry>
        </mxCell>
        <mxCell id="3fG_CCsMFPw_mHlSEDTY-3" value="Пункт меню" style="rhombus;whiteSpace=wrap;html=1;strokeWidth=2;fontFamily=Times New Roman;fontSize=14;" vertex="1" parent="1cPZwZX00cQFC3dF3ciB-1">
          <mxGeometry x="240" y="220" width="120" height="80" as="geometry" />
        </mxCell>
        <mxCell id="3fG_CCsMFPw_mHlSEDTY-4" value="" style="endArrow=none;html=1;rounded=0;fontFamily=Times New Roman;fontSize=14;" edge="1" parent="1cPZwZX00cQFC3dF3ciB-1">
          <mxGeometry width="50" height="50" relative="1" as="geometry">
            <mxPoint x="300" y="790" as="sourcePoint" />
            <mxPoint x="300" y="300" as="targetPoint" />
          </mxGeometry>
        </mxCell>
        <mxCell id="3fG_CCsMFPw_mHlSEDTY-5" value="" style="endArrow=classic;html=1;rounded=0;fontFamily=Times New Roman;fontSize=14;startArrow=none;" edge="1" parent="1cPZwZX00cQFC3dF3ciB-1">
          <mxGeometry width="50" height="50" relative="1" as="geometry">
            <mxPoint x="300" y="330" as="sourcePoint" />
            <mxPoint x="350" y="330" as="targetPoint" />
          </mxGeometry>
        </mxCell>
        <mxCell id="3fG_CCsMFPw_mHlSEDTY-6" value="Организация списка&lt;br&gt;addFirst" style="shape=process;whiteSpace=wrap;html=1;backgroundOutline=1;strokeWidth=2;fontFamily=Times New Roman;fontSize=14;" vertex="1" parent="1cPZwZX00cQFC3dF3ciB-1">
          <mxGeometry x="350" y="290" width="120" height="80" as="geometry" />
        </mxCell>
        <mxCell id="3fG_CCsMFPw_mHlSEDTY-7" value="" style="endArrow=classic;html=1;rounded=0;fontFamily=Times New Roman;fontSize=14;" edge="1" parent="1cPZwZX00cQFC3dF3ciB-1">
          <mxGeometry width="50" height="50" relative="1" as="geometry">
            <mxPoint x="300" y="429.5" as="sourcePoint" />
            <mxPoint x="350" y="430" as="targetPoint" />
          </mxGeometry>
        </mxCell>
        <mxCell id="3fG_CCsMFPw_mHlSEDTY-8" value="Добавление элемента&lt;br&gt;addMore" style="shape=process;whiteSpace=wrap;html=1;backgroundOutline=1;strokeWidth=2;fontFamily=Times New Roman;fontSize=14;" vertex="1" parent="1cPZwZX00cQFC3dF3ciB-1">
          <mxGeometry x="350" y="390" width="120" height="80" as="geometry" />
        </mxCell>
        <mxCell id="3fG_CCsMFPw_mHlSEDTY-9" value="" style="endArrow=classic;html=1;rounded=0;fontFamily=Times New Roman;fontSize=14;" edge="1" parent="1cPZwZX00cQFC3dF3ciB-1">
          <mxGeometry width="50" height="50" relative="1" as="geometry">
            <mxPoint x="300" y="529.5" as="sourcePoint" />
            <mxPoint x="350" y="530" as="targetPoint" />
          </mxGeometry>
        </mxCell>
        <mxCell id="3fG_CCsMFPw_mHlSEDTY-10" value="Удаление по ключевому элементу" style="shape=process;whiteSpace=wrap;html=1;backgroundOutline=1;strokeWidth=2;fontFamily=Times New Roman;fontSize=14;" vertex="1" parent="1cPZwZX00cQFC3dF3ciB-1">
          <mxGeometry x="350" y="490" width="120" height="80" as="geometry" />
        </mxCell>
        <mxCell id="3fG_CCsMFPw_mHlSEDTY-12" value="case 0:" style="text;html=1;align=center;verticalAlign=middle;resizable=0;points=[];autosize=1;strokeColor=none;fillColor=none;fontSize=14;fontFamily=Times New Roman;" vertex="1" parent="1cPZwZX00cQFC3dF3ciB-1">
          <mxGeometry x="170" y="840" width="50" height="20" as="geometry" />
        </mxCell>
        <mxCell id="3fG_CCsMFPw_mHlSEDTY-13" value="case 1:" style="text;html=1;align=center;verticalAlign=middle;resizable=0;points=[];autosize=1;strokeColor=none;fillColor=none;fontSize=14;fontFamily=Times New Roman;" vertex="1" parent="1cPZwZX00cQFC3dF3ciB-1">
          <mxGeometry x="170" y="940" width="50" height="20" as="geometry" />
        </mxCell>
        <mxCell id="3fG_CCsMFPw_mHlSEDTY-15" value="case 2:" style="text;html=1;align=center;verticalAlign=middle;resizable=0;points=[];autosize=1;strokeColor=none;fillColor=none;fontSize=14;fontFamily=Times New Roman;" vertex="1" parent="1cPZwZX00cQFC3dF3ciB-1">
          <mxGeometry x="300" y="511" width="50" height="20" as="geometry" />
        </mxCell>
        <mxCell id="3fG_CCsMFPw_mHlSEDTY-16" value="case 1:" style="text;html=1;align=center;verticalAlign=middle;resizable=0;points=[];autosize=1;strokeColor=none;fillColor=none;fontSize=14;fontFamily=Times New Roman;" vertex="1" parent="1cPZwZX00cQFC3dF3ciB-1">
          <mxGeometry x="300" y="411" width="50" height="20" as="geometry" />
        </mxCell>
        <mxCell id="3fG_CCsMFPw_mHlSEDTY-17" value="" style="endArrow=classic;html=1;rounded=0;fontFamily=Times New Roman;fontSize=14;" edge="1" parent="1cPZwZX00cQFC3dF3ciB-1">
          <mxGeometry width="50" height="50" relative="1" as="geometry">
            <mxPoint x="300" y="629.5" as="sourcePoint" />
            <mxPoint x="350" y="630" as="targetPoint" />
          </mxGeometry>
        </mxCell>
        <mxCell id="3fG_CCsMFPw_mHlSEDTY-18" value="Корректировка записи&lt;br&gt;edit" style="shape=process;whiteSpace=wrap;html=1;backgroundOutline=1;strokeWidth=2;fontFamily=Times New Roman;fontSize=14;" vertex="1" parent="1cPZwZX00cQFC3dF3ciB-1">
          <mxGeometry x="350" y="590" width="120" height="80" as="geometry" />
        </mxCell>
        <mxCell id="3fG_CCsMFPw_mHlSEDTY-19" value="" style="endArrow=classic;html=1;rounded=0;fontFamily=Times New Roman;fontSize=14;" edge="1" parent="1cPZwZX00cQFC3dF3ciB-1">
          <mxGeometry width="50" height="50" relative="1" as="geometry">
            <mxPoint x="300" y="729.5" as="sourcePoint" />
            <mxPoint x="350" y="730" as="targetPoint" />
          </mxGeometry>
        </mxCell>
        <mxCell id="3fG_CCsMFPw_mHlSEDTY-20" value="Сортировка списка&lt;br&gt;sort_List" style="shape=process;whiteSpace=wrap;html=1;backgroundOutline=1;strokeWidth=2;fontFamily=Times New Roman;fontSize=14;" vertex="1" parent="1cPZwZX00cQFC3dF3ciB-1">
          <mxGeometry x="350" y="690" width="120" height="80" as="geometry" />
        </mxCell>
        <mxCell id="3fG_CCsMFPw_mHlSEDTY-23" value="case 3:" style="text;html=1;align=center;verticalAlign=middle;resizable=0;points=[];autosize=1;strokeColor=none;fillColor=none;fontSize=14;fontFamily=Times New Roman;" vertex="1" parent="1cPZwZX00cQFC3dF3ciB-1">
          <mxGeometry x="300" y="611" width="50" height="20" as="geometry" />
        </mxCell>
        <mxCell id="3fG_CCsMFPw_mHlSEDTY-25" value="case 4:" style="text;html=1;align=center;verticalAlign=middle;resizable=0;points=[];autosize=1;strokeColor=none;fillColor=none;fontSize=14;fontFamily=Times New Roman;" vertex="1" parent="1cPZwZX00cQFC3dF3ciB-1">
          <mxGeometry x="300" y="710" width="50" height="20" as="geometry" />
        </mxCell>
        <mxCell id="3fG_CCsMFPw_mHlSEDTY-35" value="А" style="ellipse;whiteSpace=wrap;html=1;aspect=fixed;strokeWidth=2;fontFamily=Times New Roman;fontSize=14;" vertex="1" parent="1cPZwZX00cQFC3dF3ciB-1">
          <mxGeometry x="180" y="120" width="40" height="40" as="geometry" />
        </mxCell>
        <mxCell id="3fG_CCsMFPw_mHlSEDTY-37" value="" style="endArrow=classic;html=1;rounded=0;fontFamily=Times New Roman;fontSize=14;entryX=0.5;entryY=0;entryDx=0;entryDy=0;" edge="1" parent="1cPZwZX00cQFC3dF3ciB-1" target="3fG_CCsMFPw_mHlSEDTY-1">
          <mxGeometry width="50" height="50" relative="1" as="geometry">
            <mxPoint x="300" y="100" as="sourcePoint" />
            <mxPoint x="320" y="100" as="targetPoint" />
          </mxGeometry>
        </mxCell>
        <mxCell id="3fG_CCsMFPw_mHlSEDTY-73" value="" style="endArrow=classic;html=1;rounded=0;fontFamily=Times New Roman;fontSize=14;" edge="1" parent="1cPZwZX00cQFC3dF3ciB-1">
          <mxGeometry width="50" height="50" relative="1" as="geometry">
            <mxPoint x="300" y="790" as="sourcePoint" />
            <mxPoint x="530" y="790" as="targetPoint" />
          </mxGeometry>
        </mxCell>
        <mxCell id="3fG_CCsMFPw_mHlSEDTY-74" value="" style="endArrow=classic;html=1;rounded=0;fontFamily=Times New Roman;fontSize=14;" edge="1" parent="1cPZwZX00cQFC3dF3ciB-1">
          <mxGeometry width="50" height="50" relative="1" as="geometry">
            <mxPoint x="530" y="790" as="sourcePoint" />
            <mxPoint x="530" y="290" as="targetPoint" />
          </mxGeometry>
        </mxCell>
        <mxCell id="3fG_CCsMFPw_mHlSEDTY-83" value="" style="endArrow=classic;html=1;entryX=0;entryY=0.5;entryDx=0;entryDy=0;rounded=0;fontFamily=Times New Roman;fontSize=14;" edge="1" parent="1cPZwZX00cQFC3dF3ciB-1" target="3fG_CCsMFPw_mHlSEDTY-84">
          <mxGeometry width="50" height="50" relative="1" as="geometry">
            <mxPoint x="560" y="430.5" as="sourcePoint" />
            <mxPoint x="610" y="430.5" as="targetPoint" />
          </mxGeometry>
        </mxCell>
        <mxCell id="3fG_CCsMFPw_mHlSEDTY-84" value="Просмотр списка&lt;br&gt;printHeader, printList" style="shape=process;whiteSpace=wrap;html=1;backgroundOutline=1;strokeWidth=2;fontFamily=Times New Roman;fontSize=14;" vertex="1" parent="1cPZwZX00cQFC3dF3ciB-1">
          <mxGeometry x="620" y="391" width="120" height="80" as="geometry" />
        </mxCell>
        <mxCell id="3fG_CCsMFPw_mHlSEDTY-85" value="" style="endArrow=classic;html=1;entryX=0;entryY=0.5;entryDx=0;entryDy=0;rounded=0;fontFamily=Times New Roman;fontSize=14;" edge="1" parent="1cPZwZX00cQFC3dF3ciB-1" target="3fG_CCsMFPw_mHlSEDTY-86">
          <mxGeometry width="50" height="50" relative="1" as="geometry">
            <mxPoint x="560" y="530.5" as="sourcePoint" />
            <mxPoint x="610" y="530.5" as="targetPoint" />
          </mxGeometry>
        </mxCell>
        <mxCell id="3fG_CCsMFPw_mHlSEDTY-86" value="Cохранение в файл&lt;br&gt;saveFile" style="shape=process;whiteSpace=wrap;html=1;backgroundOutline=1;strokeWidth=2;fontFamily=Times New Roman;fontSize=14;" vertex="1" parent="1cPZwZX00cQFC3dF3ciB-1">
          <mxGeometry x="620" y="491" width="120" height="80" as="geometry" />
        </mxCell>
        <mxCell id="3fG_CCsMFPw_mHlSEDTY-87" value="" style="endArrow=classic;html=1;entryX=0;entryY=0.5;entryDx=0;entryDy=0;rounded=0;fontFamily=Times New Roman;fontSize=14;" edge="1" parent="1cPZwZX00cQFC3dF3ciB-1" target="3fG_CCsMFPw_mHlSEDTY-88">
          <mxGeometry width="50" height="50" relative="1" as="geometry">
            <mxPoint x="560" y="630.5" as="sourcePoint" />
            <mxPoint x="610" y="630.5" as="targetPoint" />
          </mxGeometry>
        </mxCell>
        <mxCell id="3fG_CCsMFPw_mHlSEDTY-88" value="Чтение из файла&lt;br&gt;loadFile" style="shape=process;whiteSpace=wrap;html=1;backgroundOutline=1;strokeWidth=2;fontFamily=Times New Roman;fontSize=14;" vertex="1" parent="1cPZwZX00cQFC3dF3ciB-1">
          <mxGeometry x="620" y="591" width="120" height="80" as="geometry" />
        </mxCell>
        <mxCell id="3fG_CCsMFPw_mHlSEDTY-89" value="case 6:" style="text;html=1;align=center;verticalAlign=middle;resizable=0;points=[];autosize=1;strokeColor=none;fillColor=none;fontSize=14;fontFamily=Times New Roman;" vertex="1" parent="1cPZwZX00cQFC3dF3ciB-1">
          <mxGeometry x="560" y="411" width="50" height="20" as="geometry" />
        </mxCell>
        <mxCell id="3fG_CCsMFPw_mHlSEDTY-90" value="case 8:" style="text;html=1;align=center;verticalAlign=middle;resizable=0;points=[];autosize=1;strokeColor=none;fillColor=none;fontSize=14;fontFamily=Times New Roman;" vertex="1" parent="1cPZwZX00cQFC3dF3ciB-1">
          <mxGeometry x="560" y="615" width="50" height="20" as="geometry" />
        </mxCell>
        <mxCell id="3fG_CCsMFPw_mHlSEDTY-91" value="case 7:" style="text;html=1;align=center;verticalAlign=middle;resizable=0;points=[];autosize=1;strokeColor=none;fillColor=none;fontSize=14;fontFamily=Times New Roman;" vertex="1" parent="1cPZwZX00cQFC3dF3ciB-1">
          <mxGeometry x="560" y="510" width="50" height="20" as="geometry" />
        </mxCell>
        <mxCell id="3fG_CCsMFPw_mHlSEDTY-92" value="" style="endArrow=classic;html=1;rounded=0;fontFamily=Times New Roman;fontSize=14;" edge="1" parent="1cPZwZX00cQFC3dF3ciB-1">
          <mxGeometry width="50" height="50" relative="1" as="geometry">
            <mxPoint x="940" y="-300" as="sourcePoint" />
            <mxPoint x="990" y="-300" as="targetPoint" />
          </mxGeometry>
        </mxCell>
        <mxCell id="3fG_CCsMFPw_mHlSEDTY-93" value="Организация списка&lt;br&gt;addFirst" style="shape=process;whiteSpace=wrap;html=1;backgroundOutline=1;strokeWidth=2;fontFamily=Times New Roman;fontSize=14;" vertex="1" parent="1cPZwZX00cQFC3dF3ciB-1">
          <mxGeometry x="990" y="-340" width="120" height="80" as="geometry" />
        </mxCell>
        <mxCell id="3fG_CCsMFPw_mHlSEDTY-94" value="" style="endArrow=classic;html=1;rounded=0;fontFamily=Times New Roman;fontSize=14;" edge="1" parent="1cPZwZX00cQFC3dF3ciB-1">
          <mxGeometry width="50" height="50" relative="1" as="geometry">
            <mxPoint x="940" y="-201.18000000000006" as="sourcePoint" />
            <mxPoint x="990" y="-200.76999999999998" as="targetPoint" />
          </mxGeometry>
        </mxCell>
        <mxCell id="3fG_CCsMFPw_mHlSEDTY-95" value="Завершение работы программы" style="rounded=0;whiteSpace=wrap;html=1;strokeWidth=2;fontFamily=Times New Roman;fontSize=14;" vertex="1" parent="1cPZwZX00cQFC3dF3ciB-1">
          <mxGeometry x="990" y="-240" width="120" height="80" as="geometry" />
        </mxCell>
        <mxCell id="3fG_CCsMFPw_mHlSEDTY-96" value="case 9:" style="text;html=1;align=center;verticalAlign=middle;resizable=0;points=[];autosize=1;strokeColor=none;fillColor=none;fontSize=14;fontFamily=Times New Roman;" vertex="1" parent="1cPZwZX00cQFC3dF3ciB-1">
          <mxGeometry x="940" y="-320" width="50" height="20" as="geometry" />
        </mxCell>
        <mxCell id="3fG_CCsMFPw_mHlSEDTY-97" value="case 10:" style="text;html=1;align=center;verticalAlign=middle;resizable=0;points=[];autosize=1;strokeColor=none;fillColor=none;fontSize=14;fontFamily=Times New Roman;" vertex="1" parent="1cPZwZX00cQFC3dF3ciB-1">
          <mxGeometry x="990" y="-255" width="60" height="20" as="geometry" />
        </mxCell>
        <mxCell id="3fG_CCsMFPw_mHlSEDTY-102" value="" style="endArrow=classic;html=1;entryX=0;entryY=0.5;entryDx=0;entryDy=0;rounded=0;fontFamily=Times New Roman;fontSize=14;" edge="1" parent="1cPZwZX00cQFC3dF3ciB-1" target="3fG_CCsMFPw_mHlSEDTY-103">
          <mxGeometry width="50" height="50" relative="1" as="geometry">
            <mxPoint x="560" y="330" as="sourcePoint" />
            <mxPoint x="610" y="335.5" as="targetPoint" />
          </mxGeometry>
        </mxCell>
        <mxCell id="3fG_CCsMFPw_mHlSEDTY-103" value="Поиск&lt;br&gt;search" style="shape=process;whiteSpace=wrap;html=1;backgroundOutline=1;strokeWidth=2;fontFamily=Times New Roman;fontSize=14;" vertex="1" parent="1cPZwZX00cQFC3dF3ciB-1">
          <mxGeometry x="620" y="290" width="120" height="80" as="geometry" />
        </mxCell>
        <mxCell id="3fG_CCsMFPw_mHlSEDTY-104" value="case 5:" style="text;html=1;align=center;verticalAlign=middle;resizable=0;points=[];autosize=1;strokeColor=none;fillColor=none;fontSize=14;fontFamily=Times New Roman;" vertex="1" parent="1cPZwZX00cQFC3dF3ciB-1">
          <mxGeometry x="560" y="310" width="50" height="20" as="geometry" />
        </mxCell>
        <mxCell id="3fG_CCsMFPw_mHlSEDTY-105" value="" style="endArrow=classic;html=1;rounded=0;fontFamily=Times New Roman;fontSize=14;entryX=0;entryY=0.5;entryDx=0;entryDy=0;" edge="1" parent="1cPZwZX00cQFC3dF3ciB-1" target="3fG_CCsMFPw_mHlSEDTY-108">
          <mxGeometry width="50" height="50" relative="1" as="geometry">
            <mxPoint x="560" y="730" as="sourcePoint" />
            <mxPoint x="605" y="729.5" as="targetPoint" />
          </mxGeometry>
        </mxCell>
        <mxCell id="3fG_CCsMFPw_mHlSEDTY-106" value="" style="endArrow=classic;html=1;rounded=0;fontFamily=Times New Roman;fontSize=14;" edge="1" parent="1cPZwZX00cQFC3dF3ciB-1">
          <mxGeometry width="50" height="50" relative="1" as="geometry">
            <mxPoint x="530" y="290" as="sourcePoint" />
            <mxPoint x="560" y="290" as="targetPoint" />
          </mxGeometry>
        </mxCell>
        <mxCell id="3fG_CCsMFPw_mHlSEDTY-107" value="" style="endArrow=classic;html=1;rounded=0;fontFamily=Times New Roman;fontSize=14;" edge="1" parent="1cPZwZX00cQFC3dF3ciB-1">
          <mxGeometry width="50" height="50" relative="1" as="geometry">
            <mxPoint x="560" y="290" as="sourcePoint" />
            <mxPoint x="560" y="820" as="targetPoint" />
          </mxGeometry>
        </mxCell>
        <mxCell id="3fG_CCsMFPw_mHlSEDTY-108" value="Обработка&lt;br&gt;processing" style="shape=process;whiteSpace=wrap;html=1;backgroundOutline=1;strokeWidth=2;fontFamily=Times New Roman;fontSize=14;" vertex="1" parent="1cPZwZX00cQFC3dF3ciB-1">
          <mxGeometry x="620" y="690" width="120" height="80" as="geometry" />
        </mxCell>
        <mxCell id="3fG_CCsMFPw_mHlSEDTY-110" value="" style="endArrow=classic;html=1;rounded=0;fontFamily=Times New Roman;fontSize=14;entryX=0;entryY=0.5;entryDx=0;entryDy=0;" edge="1" parent="1cPZwZX00cQFC3dF3ciB-1">
          <mxGeometry width="50" height="50" relative="1" as="geometry">
            <mxPoint x="560" y="820" as="sourcePoint" />
            <mxPoint x="620" y="820" as="targetPoint" />
          </mxGeometry>
        </mxCell>
        <mxCell id="3fG_CCsMFPw_mHlSEDTY-111" value="case 9:" style="text;html=1;align=center;verticalAlign=middle;resizable=0;points=[];autosize=1;strokeColor=none;fillColor=none;fontSize=14;fontFamily=Times New Roman;" vertex="1" parent="1cPZwZX00cQFC3dF3ciB-1">
          <mxGeometry x="560" y="710" width="50" height="20" as="geometry" />
        </mxCell>
        <mxCell id="3fG_CCsMFPw_mHlSEDTY-112" value="case 10:" style="text;html=1;align=center;verticalAlign=middle;resizable=0;points=[];autosize=1;strokeColor=none;fillColor=none;fontSize=14;fontFamily=Times New Roman;" vertex="1" parent="1cPZwZX00cQFC3dF3ciB-1">
          <mxGeometry x="555" y="800" width="60" height="20" as="geometry" />
        </mxCell>
        <mxCell id="3fG_CCsMFPw_mHlSEDTY-113" value="" style="endArrow=none;html=1;entryX=0;entryY=0.5;entryDx=0;entryDy=0;rounded=0;fontFamily=Times New Roman;fontSize=14;" edge="1" parent="1cPZwZX00cQFC3dF3ciB-1">
          <mxGeometry width="50" height="50" relative="1" as="geometry">
            <mxPoint x="300" y="329.5" as="sourcePoint" />
            <mxPoint x="300" y="319.9999999999998" as="targetPoint" />
          </mxGeometry>
        </mxCell>
        <mxCell id="3fG_CCsMFPw_mHlSEDTY-114" value="case 0:" style="text;html=1;align=center;verticalAlign=middle;resizable=0;points=[];autosize=1;strokeColor=none;fillColor=none;fontSize=14;fontFamily=Times New Roman;" vertex="1" parent="1cPZwZX00cQFC3dF3ciB-1">
          <mxGeometry x="300" y="310" width="50" height="20" as="geometry" />
        </mxCell>
        <mxCell id="3fG_CCsMFPw_mHlSEDTY-115" value="" style="endArrow=classic;html=1;rounded=0;fontFamily=Times New Roman;fontSize=14;" edge="1" parent="1cPZwZX00cQFC3dF3ciB-1">
          <mxGeometry width="50" height="50" relative="1" as="geometry">
            <mxPoint x="470" y="730" as="sourcePoint" />
            <mxPoint x="490" y="730" as="targetPoint" />
          </mxGeometry>
        </mxCell>
        <mxCell id="3fG_CCsMFPw_mHlSEDTY-117" value="" style="endArrow=classic;html=1;rounded=0;fontFamily=Times New Roman;fontSize=14;" edge="1" parent="1cPZwZX00cQFC3dF3ciB-1">
          <mxGeometry width="50" height="50" relative="1" as="geometry">
            <mxPoint x="470" y="630" as="sourcePoint" />
            <mxPoint x="490" y="630" as="targetPoint" />
          </mxGeometry>
        </mxCell>
        <mxCell id="3fG_CCsMFPw_mHlSEDTY-118" value="" style="endArrow=classic;html=1;rounded=0;fontFamily=Times New Roman;fontSize=14;" edge="1" parent="1cPZwZX00cQFC3dF3ciB-1">
          <mxGeometry width="50" height="50" relative="1" as="geometry">
            <mxPoint x="470" y="530" as="sourcePoint" />
            <mxPoint x="490" y="530" as="targetPoint" />
          </mxGeometry>
        </mxCell>
        <mxCell id="3fG_CCsMFPw_mHlSEDTY-119" value="" style="endArrow=classic;html=1;rounded=0;fontFamily=Times New Roman;fontSize=14;" edge="1" parent="1cPZwZX00cQFC3dF3ciB-1">
          <mxGeometry width="50" height="50" relative="1" as="geometry">
            <mxPoint x="470" y="430" as="sourcePoint" />
            <mxPoint x="490" y="430" as="targetPoint" />
          </mxGeometry>
        </mxCell>
        <mxCell id="3fG_CCsMFPw_mHlSEDTY-120" value="" style="endArrow=classic;html=1;rounded=0;fontFamily=Times New Roman;fontSize=14;" edge="1" parent="1cPZwZX00cQFC3dF3ciB-1" source="3fG_CCsMFPw_mHlSEDTY-6">
          <mxGeometry width="50" height="50" relative="1" as="geometry">
            <mxPoint x="470" y="330" as="sourcePoint" />
            <mxPoint x="490" y="330" as="targetPoint" />
          </mxGeometry>
        </mxCell>
        <mxCell id="3fG_CCsMFPw_mHlSEDTY-121" value="" style="endArrow=classic;html=1;rounded=0;fontFamily=Times New Roman;fontSize=14;" edge="1" parent="1cPZwZX00cQFC3dF3ciB-1">
          <mxGeometry width="50" height="50" relative="1" as="geometry">
            <mxPoint x="490" y="730" as="sourcePoint" />
            <mxPoint x="490" y="630" as="targetPoint" />
          </mxGeometry>
        </mxCell>
        <mxCell id="3fG_CCsMFPw_mHlSEDTY-122" value="" style="endArrow=classic;html=1;rounded=0;fontFamily=Times New Roman;fontSize=14;" edge="1" parent="1cPZwZX00cQFC3dF3ciB-1">
          <mxGeometry width="50" height="50" relative="1" as="geometry">
            <mxPoint x="490" y="630" as="sourcePoint" />
            <mxPoint x="490" y="530" as="targetPoint" />
          </mxGeometry>
        </mxCell>
        <mxCell id="3fG_CCsMFPw_mHlSEDTY-123" value="" style="endArrow=classic;html=1;rounded=0;fontFamily=Times New Roman;fontSize=14;" edge="1" parent="1cPZwZX00cQFC3dF3ciB-1">
          <mxGeometry width="50" height="50" relative="1" as="geometry">
            <mxPoint x="490" y="530" as="sourcePoint" />
            <mxPoint x="490" y="430" as="targetPoint" />
          </mxGeometry>
        </mxCell>
        <mxCell id="3fG_CCsMFPw_mHlSEDTY-125" value="" style="endArrow=classic;html=1;rounded=0;fontFamily=Times New Roman;fontSize=14;" edge="1" parent="1cPZwZX00cQFC3dF3ciB-1">
          <mxGeometry width="50" height="50" relative="1" as="geometry">
            <mxPoint x="490" y="430" as="sourcePoint" />
            <mxPoint x="490" y="330" as="targetPoint" />
          </mxGeometry>
        </mxCell>
        <mxCell id="3fG_CCsMFPw_mHlSEDTY-126" value="" style="endArrow=classic;html=1;rounded=0;fontFamily=Times New Roman;fontSize=14;" edge="1" parent="1cPZwZX00cQFC3dF3ciB-1">
          <mxGeometry width="50" height="50" relative="1" as="geometry">
            <mxPoint x="490" y="330" as="sourcePoint" />
            <mxPoint x="490" y="280" as="targetPoint" />
          </mxGeometry>
        </mxCell>
        <mxCell id="3fG_CCsMFPw_mHlSEDTY-127" value="А" style="ellipse;whiteSpace=wrap;html=1;aspect=fixed;strokeWidth=2;fontFamily=Times New Roman;fontSize=14;" vertex="1" parent="1cPZwZX00cQFC3dF3ciB-1">
          <mxGeometry x="470" y="240" width="40" height="40" as="geometry" />
        </mxCell>
        <mxCell id="3fG_CCsMFPw_mHlSEDTY-128" value="" style="endArrow=classic;html=1;rounded=0;fontFamily=Times New Roman;fontSize=14;" edge="1" parent="1cPZwZX00cQFC3dF3ciB-1">
          <mxGeometry width="50" height="50" relative="1" as="geometry">
            <mxPoint x="200" y="100" as="sourcePoint" />
            <mxPoint x="300" y="100" as="targetPoint" />
          </mxGeometry>
        </mxCell>
        <mxCell id="3fG_CCsMFPw_mHlSEDTY-129" value="" style="endArrow=classic;html=1;rounded=0;fontFamily=Times New Roman;fontSize=14;" edge="1" parent="1cPZwZX00cQFC3dF3ciB-1">
          <mxGeometry width="50" height="50" relative="1" as="geometry">
            <mxPoint x="200" y="120" as="sourcePoint" />
            <mxPoint x="200" y="100" as="targetPoint" />
          </mxGeometry>
        </mxCell>
        <mxCell id="3fG_CCsMFPw_mHlSEDTY-130" value="main&lt;br&gt;Конец" style="strokeWidth=2;html=1;shape=mxgraph.flowchart.terminator;whiteSpace=wrap;fontFamily=Times New Roman;fontSize=14;" vertex="1" parent="1cPZwZX00cQFC3dF3ciB-1">
          <mxGeometry x="620" y="800" width="120" height="40" as="geometry" />
        </mxCell>
        <mxCell id="3fG_CCsMFPw_mHlSEDTY-133" value="" style="endArrow=classic;html=1;rounded=0;fontFamily=Times New Roman;fontSize=14;" edge="1" parent="1cPZwZX00cQFC3dF3ciB-1" source="3fG_CCsMFPw_mHlSEDTY-108">
          <mxGeometry width="50" height="50" relative="1" as="geometry">
            <mxPoint x="740" y="730" as="sourcePoint" />
            <mxPoint x="760" y="730" as="targetPoint" />
          </mxGeometry>
        </mxCell>
        <mxCell id="3fG_CCsMFPw_mHlSEDTY-134" value="" style="endArrow=classic;html=1;rounded=0;fontFamily=Times New Roman;fontSize=14;" edge="1" parent="1cPZwZX00cQFC3dF3ciB-1" source="3fG_CCsMFPw_mHlSEDTY-88">
          <mxGeometry width="50" height="50" relative="1" as="geometry">
            <mxPoint x="740" y="631" as="sourcePoint" />
            <mxPoint x="760" y="631" as="targetPoint" />
          </mxGeometry>
        </mxCell>
        <mxCell id="3fG_CCsMFPw_mHlSEDTY-135" value="" style="endArrow=classic;html=1;rounded=0;fontFamily=Times New Roman;fontSize=14;" edge="1" parent="1cPZwZX00cQFC3dF3ciB-1" source="3fG_CCsMFPw_mHlSEDTY-86">
          <mxGeometry width="50" height="50" relative="1" as="geometry">
            <mxPoint x="740" y="531" as="sourcePoint" />
            <mxPoint x="760" y="531" as="targetPoint" />
          </mxGeometry>
        </mxCell>
        <mxCell id="3fG_CCsMFPw_mHlSEDTY-136" value="" style="endArrow=classic;html=1;rounded=0;fontFamily=Times New Roman;fontSize=14;" edge="1" parent="1cPZwZX00cQFC3dF3ciB-1">
          <mxGeometry width="50" height="50" relative="1" as="geometry">
            <mxPoint x="740" y="431" as="sourcePoint" />
            <mxPoint x="760" y="431" as="targetPoint" />
          </mxGeometry>
        </mxCell>
        <mxCell id="3fG_CCsMFPw_mHlSEDTY-137" value="" style="endArrow=classic;html=1;rounded=0;fontFamily=Times New Roman;fontSize=14;" edge="1" parent="1cPZwZX00cQFC3dF3ciB-1">
          <mxGeometry width="50" height="50" relative="1" as="geometry">
            <mxPoint x="740" y="340" as="sourcePoint" />
            <mxPoint x="760" y="340" as="targetPoint" />
          </mxGeometry>
        </mxCell>
        <mxCell id="3fG_CCsMFPw_mHlSEDTY-138" value="" style="endArrow=classic;html=1;rounded=0;fontFamily=Times New Roman;fontSize=14;" edge="1" parent="1cPZwZX00cQFC3dF3ciB-1">
          <mxGeometry width="50" height="50" relative="1" as="geometry">
            <mxPoint x="760" y="730" as="sourcePoint" />
            <mxPoint x="760" y="630" as="targetPoint" />
          </mxGeometry>
        </mxCell>
        <mxCell id="3fG_CCsMFPw_mHlSEDTY-139" value="" style="endArrow=classic;html=1;rounded=0;fontFamily=Times New Roman;fontSize=14;" edge="1" parent="1cPZwZX00cQFC3dF3ciB-1">
          <mxGeometry width="50" height="50" relative="1" as="geometry">
            <mxPoint x="760" y="630" as="sourcePoint" />
            <mxPoint x="760" y="530" as="targetPoint" />
          </mxGeometry>
        </mxCell>
        <mxCell id="3fG_CCsMFPw_mHlSEDTY-140" value="" style="endArrow=classic;html=1;rounded=0;fontFamily=Times New Roman;fontSize=14;" edge="1" parent="1cPZwZX00cQFC3dF3ciB-1">
          <mxGeometry width="50" height="50" relative="1" as="geometry">
            <mxPoint x="760" y="530" as="sourcePoint" />
            <mxPoint x="760" y="430" as="targetPoint" />
          </mxGeometry>
        </mxCell>
        <mxCell id="3fG_CCsMFPw_mHlSEDTY-141" value="" style="endArrow=classic;html=1;rounded=0;fontFamily=Times New Roman;fontSize=14;" edge="1" parent="1cPZwZX00cQFC3dF3ciB-1">
          <mxGeometry width="50" height="50" relative="1" as="geometry">
            <mxPoint x="760" y="430" as="sourcePoint" />
            <mxPoint x="760" y="340" as="targetPoint" />
          </mxGeometry>
        </mxCell>
        <mxCell id="3fG_CCsMFPw_mHlSEDTY-142" value="" style="endArrow=classic;html=1;rounded=0;fontFamily=Times New Roman;fontSize=14;" edge="1" parent="1cPZwZX00cQFC3dF3ciB-1">
          <mxGeometry width="50" height="50" relative="1" as="geometry">
            <mxPoint x="760" y="340" as="sourcePoint" />
            <mxPoint x="760" y="280" as="targetPoint" />
          </mxGeometry>
        </mxCell>
        <mxCell id="3fG_CCsMFPw_mHlSEDTY-143" value="А" style="ellipse;whiteSpace=wrap;html=1;aspect=fixed;strokeWidth=2;fontFamily=Times New Roman;fontSize=14;" vertex="1" parent="1cPZwZX00cQFC3dF3ciB-1">
          <mxGeometry x="740" y="240" width="40" height="40" as="geometry" />
        </mxCell>
        <mxCell id="3fG_CCsMFPw_mHlSEDTY-144" value="" style="endArrow=classic;html=1;rounded=0;fontFamily=Times New Roman;fontSize=14;" edge="1" parent="1cPZwZX00cQFC3dF3ciB-1">
          <mxGeometry width="50" height="50" relative="1" as="geometry">
            <mxPoint x="360" y="960" as="sourcePoint" />
            <mxPoint x="360" y="910" as="targetPoint" />
          </mxGeometry>
        </mxCell>
        <mxCell id="3fG_CCsMFPw_mHlSEDTY-145" value="" style="endArrow=classic;html=1;rounded=0;fontFamily=Times New Roman;fontSize=14;" edge="1" parent="1cPZwZX00cQFC3dF3ciB-1">
          <mxGeometry width="50" height="50" relative="1" as="geometry">
            <mxPoint x="360" y="910" as="sourcePoint" />
            <mxPoint x="390" y="910" as="targetPoint" />
          </mxGeometry>
        </mxCell>
        <mxCell id="3fG_CCsMFPw_mHlSEDTY-146" value="А" style="ellipse;whiteSpace=wrap;html=1;aspect=fixed;strokeWidth=2;fontFamily=Times New Roman;fontSize=14;" vertex="1" parent="1cPZwZX00cQFC3dF3ciB-1">
          <mxGeometry x="390" y="890" width="40" height="40" as="geometry" />
        </mxCell>
      </root>
    </mxGraphModel>
  </diagram>
  <diagram id="U6qbK6Zj9v6IQdvDsQPK" name="Добавление элемента">
    <mxGraphModel dx="1422" dy="762" grid="1" gridSize="10" guides="1" tooltips="1" connect="1" arrows="1" fold="1" page="1" pageScale="1" pageWidth="827" pageHeight="1169" math="0" shadow="0">
      <root>
        <mxCell id="y084vn2evLRHLybX95Ob-0" />
        <mxCell id="y084vn2evLRHLybX95Ob-1" parent="y084vn2evLRHLybX95Ob-0" />
      </root>
    </mxGraphModel>
  </diagram>
  <diagram id="0DmGZcjK-TWb1aklqQlS" name="Удаление списка">
    <mxGraphModel dx="1422" dy="762" grid="1" gridSize="10" guides="1" tooltips="1" connect="1" arrows="1" fold="1" page="1" pageScale="1" pageWidth="827" pageHeight="1169" math="0" shadow="0">
      <root>
        <mxCell id="wOMod1b4ChhM1_y0Azlf-0" />
        <mxCell id="wOMod1b4ChhM1_y0Azlf-1" parent="wOMod1b4ChhM1_y0Azlf-0" />
      </root>
    </mxGraphModel>
  </diagram>
  <diagram id="Gizs6SL_L342htux1VLD" name="Сортировка">
    <mxGraphModel dx="657" dy="993" grid="0" gridSize="10" guides="1" tooltips="1" connect="1" arrows="1" fold="1" page="1" pageScale="1" pageWidth="827" pageHeight="1169" math="0" shadow="0">
      <root>
        <mxCell id="0" />
        <mxCell id="1" parent="0" />
        <mxCell id="UsFGGcR0a15hzeRVpA1k-4" value="Выбор пункта меню&lt;br&gt;menuItem" style="shape=process;whiteSpace=wrap;html=1;backgroundOutline=1;strokeWidth=2;fontFamily=Times New Roman;fontSize=12;align=center;" parent="1" vertex="1">
          <mxGeometry x="379" y="320" width="120" height="80" as="geometry" />
        </mxCell>
        <mxCell id="UsFGGcR0a15hzeRVpA1k-8" value="Пункт меню" style="rhombus;whiteSpace=wrap;html=1;strokeWidth=2;fontFamily=Times New Roman;" parent="1" vertex="1">
          <mxGeometry x="379" y="440" width="120" height="80" as="geometry" />
        </mxCell>
        <mxCell id="UsFGGcR0a15hzeRVpA1k-9" value="" style="endArrow=none;html=1;fontFamily=Times New Roman;" parent="1" edge="1">
          <mxGeometry width="50" height="50" relative="1" as="geometry">
            <mxPoint x="439" y="930" as="sourcePoint" />
            <mxPoint x="439" y="520" as="targetPoint" />
          </mxGeometry>
        </mxCell>
        <mxCell id="UsFGGcR0a15hzeRVpA1k-10" value="" style="endArrow=classic;html=1;entryX=0;entryY=0.5;entryDx=0;entryDy=0;fontFamily=Times New Roman;" parent="1" target="UsFGGcR0a15hzeRVpA1k-11" edge="1">
          <mxGeometry width="50" height="50" relative="1" as="geometry">
            <mxPoint x="439" y="549.5" as="sourcePoint" />
            <mxPoint x="489" y="549.5" as="targetPoint" />
          </mxGeometry>
        </mxCell>
        <mxCell id="UsFGGcR0a15hzeRVpA1k-11" value="Сортировка по номеру автобазы&lt;br&gt;sort_depotID" style="shape=process;whiteSpace=wrap;html=1;backgroundOutline=1;strokeWidth=2;fontFamily=Times New Roman;" parent="1" vertex="1">
          <mxGeometry x="499" y="510" width="120" height="80" as="geometry" />
        </mxCell>
        <mxCell id="UsFGGcR0a15hzeRVpA1k-12" value="" style="endArrow=classic;html=1;entryX=0;entryY=0.5;entryDx=0;entryDy=0;fontFamily=Times New Roman;" parent="1" target="UsFGGcR0a15hzeRVpA1k-13" edge="1">
          <mxGeometry width="50" height="50" relative="1" as="geometry">
            <mxPoint x="439" y="649.5" as="sourcePoint" />
            <mxPoint x="489" y="649.5" as="targetPoint" />
          </mxGeometry>
        </mxCell>
        <mxCell id="UsFGGcR0a15hzeRVpA1k-13" value="Сортировка по инициалам директора&amp;nbsp;&lt;br&gt;sort_name" style="shape=process;whiteSpace=wrap;html=1;backgroundOutline=1;strokeWidth=2;fontFamily=Times New Roman;" parent="1" vertex="1">
          <mxGeometry x="499" y="610" width="120" height="80" as="geometry" />
        </mxCell>
        <mxCell id="UsFGGcR0a15hzeRVpA1k-14" value="" style="endArrow=classic;html=1;entryX=0;entryY=0.5;entryDx=0;entryDy=0;fontFamily=Times New Roman;" parent="1" target="UsFGGcR0a15hzeRVpA1k-15" edge="1">
          <mxGeometry width="50" height="50" relative="1" as="geometry">
            <mxPoint x="439" y="749.5" as="sourcePoint" />
            <mxPoint x="489" y="749.5" as="targetPoint" />
          </mxGeometry>
        </mxCell>
        <mxCell id="UsFGGcR0a15hzeRVpA1k-15" value="Сортировка по расходу топлива&lt;br&gt;sort_fuelConsumed" style="shape=process;whiteSpace=wrap;html=1;backgroundOutline=1;strokeWidth=2;fontFamily=Times New Roman;" parent="1" vertex="1">
          <mxGeometry x="499" y="710" width="120" height="80" as="geometry" />
        </mxCell>
        <mxCell id="UsFGGcR0a15hzeRVpA1k-16" value="" style="endArrow=classic;html=1;exitX=0.5;exitY=1;exitDx=0;exitDy=0;fontFamily=Times New Roman;" parent="1" source="UsFGGcR0a15hzeRVpA1k-4" edge="1">
          <mxGeometry width="50" height="50" relative="1" as="geometry">
            <mxPoint x="439" y="420" as="sourcePoint" />
            <mxPoint x="439" y="440" as="targetPoint" />
          </mxGeometry>
        </mxCell>
        <mxCell id="UsFGGcR0a15hzeRVpA1k-17" value="case 0:" style="text;html=1;align=center;verticalAlign=middle;resizable=0;points=[];autosize=1;strokeColor=none;fillColor=none;fontFamily=Times New Roman;" parent="1" vertex="1">
          <mxGeometry x="449" y="530" width="50" height="20" as="geometry" />
        </mxCell>
        <mxCell id="UsFGGcR0a15hzeRVpA1k-18" value="case 1:" style="text;html=1;align=center;verticalAlign=middle;resizable=0;points=[];autosize=1;strokeColor=none;fillColor=none;fontFamily=Times New Roman;" parent="1" vertex="1">
          <mxGeometry x="449" y="630" width="50" height="20" as="geometry" />
        </mxCell>
        <mxCell id="UsFGGcR0a15hzeRVpA1k-19" value="case 2:" style="text;html=1;align=center;verticalAlign=middle;resizable=0;points=[];autosize=1;strokeColor=none;fillColor=none;fontFamily=Times New Roman;" parent="1" vertex="1">
          <mxGeometry x="449" y="730" width="50" height="20" as="geometry" />
        </mxCell>
        <mxCell id="UsFGGcR0a15hzeRVpA1k-20" value="Сортировка по количеству автомашин&lt;br&gt;sort_cars" style="shape=process;whiteSpace=wrap;html=1;backgroundOutline=1;strokeWidth=2;fontFamily=Times New Roman;" parent="1" vertex="1">
          <mxGeometry x="499" y="810" width="120" height="80" as="geometry" />
        </mxCell>
        <mxCell id="UsFGGcR0a15hzeRVpA1k-22" value="" style="endArrow=classic;html=1;fontFamily=Times New Roman;" parent="1" edge="1">
          <mxGeometry width="50" height="50" relative="1" as="geometry">
            <mxPoint x="439" y="849.5799999999999" as="sourcePoint" />
            <mxPoint x="499" y="849.5799999999999" as="targetPoint" />
          </mxGeometry>
        </mxCell>
        <mxCell id="UsFGGcR0a15hzeRVpA1k-24" value="case 3:" style="text;html=1;align=center;verticalAlign=middle;resizable=0;points=[];autosize=1;strokeColor=none;fillColor=none;fontFamily=Times New Roman;" parent="1" vertex="1">
          <mxGeometry x="449" y="830" width="50" height="20" as="geometry" />
        </mxCell>
        <mxCell id="UsFGGcR0a15hzeRVpA1k-25" value="case 4:" style="text;html=1;align=center;verticalAlign=middle;resizable=0;points=[];autosize=1;strokeColor=none;fillColor=none;fontFamily=Times New Roman;" parent="1" vertex="1">
          <mxGeometry x="449" y="910" width="50" height="20" as="geometry" />
        </mxCell>
        <mxCell id="UsFGGcR0a15hzeRVpA1k-26" value="" style="endArrow=classic;html=1;fontFamily=Times New Roman;" parent="1" edge="1">
          <mxGeometry width="50" height="50" relative="1" as="geometry">
            <mxPoint x="619" y="550" as="sourcePoint" />
            <mxPoint x="639" y="550" as="targetPoint" />
          </mxGeometry>
        </mxCell>
        <mxCell id="UsFGGcR0a15hzeRVpA1k-27" value="" style="endArrow=classic;html=1;fontFamily=Times New Roman;" parent="1" edge="1">
          <mxGeometry width="50" height="50" relative="1" as="geometry">
            <mxPoint x="619" y="650" as="sourcePoint" />
            <mxPoint x="639" y="650" as="targetPoint" />
          </mxGeometry>
        </mxCell>
        <mxCell id="UsFGGcR0a15hzeRVpA1k-28" value="" style="endArrow=classic;html=1;fontFamily=Times New Roman;" parent="1" edge="1">
          <mxGeometry width="50" height="50" relative="1" as="geometry">
            <mxPoint x="619" y="750" as="sourcePoint" />
            <mxPoint x="639" y="750" as="targetPoint" />
          </mxGeometry>
        </mxCell>
        <mxCell id="UsFGGcR0a15hzeRVpA1k-29" value="" style="endArrow=classic;html=1;fontFamily=Times New Roman;" parent="1" source="UsFGGcR0a15hzeRVpA1k-20" edge="1">
          <mxGeometry width="50" height="50" relative="1" as="geometry">
            <mxPoint x="619" y="850" as="sourcePoint" />
            <mxPoint x="639" y="850" as="targetPoint" />
          </mxGeometry>
        </mxCell>
        <mxCell id="UsFGGcR0a15hzeRVpA1k-30" value="" style="endArrow=classic;html=1;fontFamily=Times New Roman;" parent="1" edge="1">
          <mxGeometry width="50" height="50" relative="1" as="geometry">
            <mxPoint x="638.5699999999999" y="550" as="sourcePoint" />
            <mxPoint x="638.5699999999999" y="910" as="targetPoint" />
          </mxGeometry>
        </mxCell>
        <mxCell id="UsFGGcR0a15hzeRVpA1k-33" value="" style="endArrow=classic;html=1;fontFamily=Times New Roman;" parent="1" edge="1">
          <mxGeometry width="50" height="50" relative="1" as="geometry">
            <mxPoint x="439" y="929.5700000000002" as="sourcePoint" />
            <mxPoint x="619" y="929.5700000000002" as="targetPoint" />
          </mxGeometry>
        </mxCell>
        <mxCell id="UsFGGcR0a15hzeRVpA1k-34" value="А" style="ellipse;whiteSpace=wrap;html=1;aspect=fixed;strokeWidth=2;fontFamily=Times New Roman;" parent="1" vertex="1">
          <mxGeometry x="619" y="910" width="40" height="40" as="geometry" />
        </mxCell>
        <mxCell id="UsFGGcR0a15hzeRVpA1k-39" value="Список не пуст?" style="rhombus;whiteSpace=wrap;html=1;strokeWidth=2;fontFamily=Times New Roman;" parent="1" vertex="1">
          <mxGeometry x="279" y="140" width="120" height="80" as="geometry" />
        </mxCell>
        <mxCell id="UsFGGcR0a15hzeRVpA1k-40" value="" style="endArrow=classic;html=1;fontFamily=Times New Roman;" parent="1" edge="1">
          <mxGeometry width="50" height="50" relative="1" as="geometry">
            <mxPoint x="279" y="180" as="sourcePoint" />
            <mxPoint x="239" y="180" as="targetPoint" />
          </mxGeometry>
        </mxCell>
        <mxCell id="UsFGGcR0a15hzeRVpA1k-41" value="" style="endArrow=classic;html=1;fontFamily=Times New Roman;" parent="1" source="UsFGGcR0a15hzeRVpA1k-39" edge="1">
          <mxGeometry width="50" height="50" relative="1" as="geometry">
            <mxPoint x="399" y="180" as="sourcePoint" />
            <mxPoint x="439" y="180" as="targetPoint" />
          </mxGeometry>
        </mxCell>
        <mxCell id="UsFGGcR0a15hzeRVpA1k-46" value="" style="endArrow=none;html=1;fontFamily=Times New Roman;" parent="1" edge="1">
          <mxGeometry width="50" height="50" relative="1" as="geometry">
            <mxPoint x="339" y="140" as="sourcePoint" />
            <mxPoint x="339" y="120" as="targetPoint" />
          </mxGeometry>
        </mxCell>
        <mxCell id="UsFGGcR0a15hzeRVpA1k-47" value="Да" style="text;html=1;align=center;verticalAlign=middle;resizable=0;points=[];autosize=1;fontFamily=Times New Roman;" parent="1" vertex="1">
          <mxGeometry x="404" y="160" width="30" height="20" as="geometry" />
        </mxCell>
        <mxCell id="UsFGGcR0a15hzeRVpA1k-48" value="Нет" style="text;html=1;align=center;verticalAlign=middle;resizable=0;points=[];autosize=1;fontFamily=Times New Roman;" parent="1" vertex="1">
          <mxGeometry x="249" y="160" width="30" height="20" as="geometry" />
        </mxCell>
        <mxCell id="UsFGGcR0a15hzeRVpA1k-49" value="" style="endArrow=classic;html=1;fontFamily=Times New Roman;" parent="1" edge="1">
          <mxGeometry width="50" height="50" relative="1" as="geometry">
            <mxPoint x="239" y="180" as="sourcePoint" />
            <mxPoint x="239" y="230" as="targetPoint" />
          </mxGeometry>
        </mxCell>
        <mxCell id="UsFGGcR0a15hzeRVpA1k-66" value="sort_List&lt;br&gt;Начало" style="strokeWidth=2;html=1;shape=mxgraph.flowchart.terminator;whiteSpace=wrap;fontFamily=Times New Roman;" parent="1" vertex="1">
          <mxGeometry x="279" y="80" width="120" height="40" as="geometry" />
        </mxCell>
        <mxCell id="UsFGGcR0a15hzeRVpA1k-67" value="sort_List&lt;br&gt;Конец" style="strokeWidth=2;html=1;shape=mxgraph.flowchart.terminator;whiteSpace=wrap;fontFamily=Times New Roman;" parent="1" vertex="1">
          <mxGeometry x="179" y="230" width="120" height="40" as="geometry" />
        </mxCell>
        <mxCell id="UsFGGcR0a15hzeRVpA1k-68" value="&lt;span style=&quot;font-size: 24px&quot;&gt;sort_List&lt;/span&gt;" style="text;html=1;align=center;verticalAlign=middle;resizable=0;points=[];autosize=1;strokeColor=none;fillColor=none;fontFamily=Times New Roman;" parent="1" vertex="1">
          <mxGeometry x="183" y="39" width="95" height="22" as="geometry" />
        </mxCell>
        <mxCell id="UsFGGcR0a15hzeRVpA1k-69" value="&lt;font style=&quot;font-size: 12px&quot;&gt;1&lt;/font&gt;" style="text;html=1;align=center;verticalAlign=middle;resizable=0;points=[];autosize=1;strokeColor=none;fillColor=none;fontSize=24;fontFamily=Times New Roman;" parent="1" vertex="1">
          <mxGeometry x="289" y="130" width="20" height="40" as="geometry" />
        </mxCell>
        <mxCell id="UsFGGcR0a15hzeRVpA1k-72" value="4" style="text;html=1;align=center;verticalAlign=middle;resizable=0;points=[];autosize=1;strokeColor=none;fillColor=none;fontSize=12;fontFamily=Times New Roman;" parent="1" vertex="1">
          <mxGeometry x="384" y="440" width="20" height="20" as="geometry" />
        </mxCell>
        <mxCell id="UsFGGcR0a15hzeRVpA1k-73" value="5" style="text;html=1;align=center;verticalAlign=middle;resizable=0;points=[];autosize=1;strokeColor=none;fillColor=none;fontSize=12;fontFamily=Times New Roman;" parent="1" vertex="1">
          <mxGeometry x="499" y="490" width="20" height="20" as="geometry" />
        </mxCell>
        <mxCell id="UsFGGcR0a15hzeRVpA1k-74" value="6" style="text;html=1;align=center;verticalAlign=middle;resizable=0;points=[];autosize=1;strokeColor=none;fillColor=none;fontSize=12;fontFamily=Times New Roman;" parent="1" vertex="1">
          <mxGeometry x="499" y="590" width="20" height="20" as="geometry" />
        </mxCell>
        <mxCell id="UsFGGcR0a15hzeRVpA1k-77" value="7" style="text;html=1;align=center;verticalAlign=middle;resizable=0;points=[];autosize=1;strokeColor=none;fillColor=none;fontSize=12;fontFamily=Times New Roman;" parent="1" vertex="1">
          <mxGeometry x="499" y="690" width="20" height="20" as="geometry" />
        </mxCell>
        <mxCell id="UsFGGcR0a15hzeRVpA1k-99" value="Инициализация переменных" style="whiteSpace=wrap;html=1;strokeWidth=2;fontFamily=Times New Roman;fontSize=12;" parent="1" vertex="1">
          <mxGeometry x="379" y="220" width="120" height="80" as="geometry" />
        </mxCell>
        <mxCell id="UsFGGcR0a15hzeRVpA1k-100" value="" style="endArrow=classic;html=1;fontFamily=Times New Roman;fontSize=12;entryX=0.5;entryY=0;entryDx=0;entryDy=0;" parent="1" target="UsFGGcR0a15hzeRVpA1k-99" edge="1">
          <mxGeometry width="50" height="50" relative="1" as="geometry">
            <mxPoint x="439" y="180" as="sourcePoint" />
            <mxPoint x="459" y="180" as="targetPoint" />
          </mxGeometry>
        </mxCell>
        <mxCell id="UsFGGcR0a15hzeRVpA1k-101" value="" style="endArrow=classic;html=1;fontFamily=Times New Roman;fontSize=12;" parent="1" edge="1">
          <mxGeometry width="50" height="50" relative="1" as="geometry">
            <mxPoint x="439" y="300" as="sourcePoint" />
            <mxPoint x="439" y="320" as="targetPoint" />
          </mxGeometry>
        </mxCell>
        <mxCell id="bEeLqg3lcMJwO-AzUGOU-1" value="А" style="ellipse;whiteSpace=wrap;html=1;aspect=fixed;strokeWidth=2;fontFamily=Times New Roman;fontSize=12;" parent="1" vertex="1">
          <mxGeometry x="169" y="170" width="40" height="40" as="geometry" />
        </mxCell>
        <mxCell id="bEeLqg3lcMJwO-AzUGOU-2" value="" style="endArrow=classic;html=1;fontFamily=Times New Roman;fontSize=12;" parent="1" edge="1">
          <mxGeometry width="50" height="50" relative="1" as="geometry">
            <mxPoint x="209" y="190" as="sourcePoint" />
            <mxPoint x="239" y="190" as="targetPoint" />
          </mxGeometry>
        </mxCell>
        <mxCell id="bEeLqg3lcMJwO-AzUGOU-48" value="2" style="text;html=1;align=center;verticalAlign=middle;resizable=0;points=[];autosize=1;strokeColor=none;fillColor=none;" parent="1" vertex="1">
          <mxGeometry x="379" y="200" width="20" height="20" as="geometry" />
        </mxCell>
        <mxCell id="bEeLqg3lcMJwO-AzUGOU-49" value="3" style="text;html=1;align=center;verticalAlign=middle;resizable=0;points=[];autosize=1;strokeColor=none;fillColor=none;" parent="1" vertex="1">
          <mxGeometry x="379" y="300" width="20" height="20" as="geometry" />
        </mxCell>
        <mxCell id="bEeLqg3lcMJwO-AzUGOU-52" value="8" style="text;html=1;align=center;verticalAlign=middle;resizable=0;points=[];autosize=1;strokeColor=none;fillColor=none;" parent="1" vertex="1">
          <mxGeometry x="499" y="790" width="20" height="20" as="geometry" />
        </mxCell>
      </root>
    </mxGraphModel>
  </diagram>
  <diagram id="zJExhf4QfhlrtaBggCYm" name="Поиск">
    <mxGraphModel dx="-367" dy="695" grid="1" gridSize="10" guides="1" tooltips="1" connect="1" arrows="1" fold="1" page="1" pageScale="1" pageWidth="827" pageHeight="1169" math="0" shadow="0">
      <root>
        <mxCell id="is16e7ybyZsDc-lX8646-0" />
        <mxCell id="is16e7ybyZsDc-lX8646-1" parent="is16e7ybyZsDc-lX8646-0" />
        <mxCell id="is16e7ybyZsDc-lX8646-2" value="&lt;font style=&quot;font-size: 24px&quot;&gt;search&lt;/font&gt;" style="text;html=1;align=center;verticalAlign=middle;resizable=0;points=[];autosize=1;strokeColor=none;fillColor=none;fontSize=12;fontFamily=Times New Roman;" parent="is16e7ybyZsDc-lX8646-1" vertex="1">
          <mxGeometry x="970" y="40" width="80" height="20" as="geometry" />
        </mxCell>
        <mxCell id="is16e7ybyZsDc-lX8646-3" value="Список не пуст?" style="rhombus;whiteSpace=wrap;html=1;strokeWidth=2;fontFamily=Times New Roman;" parent="is16e7ybyZsDc-lX8646-1" vertex="1">
          <mxGeometry x="1105" y="155" width="120" height="80" as="geometry" />
        </mxCell>
        <mxCell id="is16e7ybyZsDc-lX8646-4" value="" style="endArrow=classic;html=1;fontFamily=Times New Roman;" parent="is16e7ybyZsDc-lX8646-1" edge="1">
          <mxGeometry width="50" height="50" relative="1" as="geometry">
            <mxPoint x="1105" y="195" as="sourcePoint" />
            <mxPoint x="1065" y="195" as="targetPoint" />
          </mxGeometry>
        </mxCell>
        <mxCell id="is16e7ybyZsDc-lX8646-5" value="" style="endArrow=classic;html=1;fontFamily=Times New Roman;" parent="is16e7ybyZsDc-lX8646-1" source="is16e7ybyZsDc-lX8646-3" edge="1">
          <mxGeometry width="50" height="50" relative="1" as="geometry">
            <mxPoint x="1225" y="195" as="sourcePoint" />
            <mxPoint x="1265" y="195" as="targetPoint" />
          </mxGeometry>
        </mxCell>
        <mxCell id="is16e7ybyZsDc-lX8646-6" value="" style="endArrow=none;html=1;fontFamily=Times New Roman;" parent="is16e7ybyZsDc-lX8646-1" edge="1">
          <mxGeometry width="50" height="50" relative="1" as="geometry">
            <mxPoint x="1165" y="155" as="sourcePoint" />
            <mxPoint x="1165" y="135" as="targetPoint" />
          </mxGeometry>
        </mxCell>
        <mxCell id="is16e7ybyZsDc-lX8646-7" value="Да" style="text;html=1;align=center;verticalAlign=middle;resizable=0;points=[];autosize=1;fontFamily=Times New Roman;" parent="is16e7ybyZsDc-lX8646-1" vertex="1">
          <mxGeometry x="1230" y="175" width="30" height="20" as="geometry" />
        </mxCell>
        <mxCell id="is16e7ybyZsDc-lX8646-8" value="Нет" style="text;html=1;align=center;verticalAlign=middle;resizable=0;points=[];autosize=1;fontFamily=Times New Roman;" parent="is16e7ybyZsDc-lX8646-1" vertex="1">
          <mxGeometry x="1075" y="175" width="30" height="20" as="geometry" />
        </mxCell>
        <mxCell id="is16e7ybyZsDc-lX8646-9" value="" style="endArrow=classic;html=1;fontFamily=Times New Roman;" parent="is16e7ybyZsDc-lX8646-1" edge="1">
          <mxGeometry width="50" height="50" relative="1" as="geometry">
            <mxPoint x="1065" y="195" as="sourcePoint" />
            <mxPoint x="1065" y="245" as="targetPoint" />
          </mxGeometry>
        </mxCell>
        <mxCell id="is16e7ybyZsDc-lX8646-10" value="search&lt;br&gt;Начало" style="strokeWidth=2;html=1;shape=mxgraph.flowchart.terminator;whiteSpace=wrap;fontFamily=Times New Roman;" parent="is16e7ybyZsDc-lX8646-1" vertex="1">
          <mxGeometry x="1105" y="95" width="120" height="40" as="geometry" />
        </mxCell>
        <mxCell id="is16e7ybyZsDc-lX8646-11" value="search&lt;br&gt;Конец" style="strokeWidth=2;html=1;shape=mxgraph.flowchart.terminator;whiteSpace=wrap;fontFamily=Times New Roman;" parent="is16e7ybyZsDc-lX8646-1" vertex="1">
          <mxGeometry x="1005" y="245" width="120" height="40" as="geometry" />
        </mxCell>
        <mxCell id="is16e7ybyZsDc-lX8646-12" value="&lt;font style=&quot;font-size: 12px&quot;&gt;1&lt;/font&gt;" style="text;html=1;align=center;verticalAlign=middle;resizable=0;points=[];autosize=1;strokeColor=none;fillColor=none;fontSize=24;fontFamily=Times New Roman;" parent="is16e7ybyZsDc-lX8646-1" vertex="1">
          <mxGeometry x="1115" y="145" width="20" height="40" as="geometry" />
        </mxCell>
        <mxCell id="is16e7ybyZsDc-lX8646-13" value="Инициализация переменных" style="whiteSpace=wrap;html=1;strokeWidth=2;fontFamily=Times New Roman;fontSize=12;" parent="is16e7ybyZsDc-lX8646-1" vertex="1">
          <mxGeometry x="1205" y="235" width="120" height="80" as="geometry" />
        </mxCell>
        <mxCell id="is16e7ybyZsDc-lX8646-14" value="" style="endArrow=classic;html=1;fontFamily=Times New Roman;fontSize=12;entryX=0.5;entryY=0;entryDx=0;entryDy=0;" parent="is16e7ybyZsDc-lX8646-1" target="is16e7ybyZsDc-lX8646-13" edge="1">
          <mxGeometry width="50" height="50" relative="1" as="geometry">
            <mxPoint x="1265" y="195" as="sourcePoint" />
            <mxPoint x="1285" y="195" as="targetPoint" />
          </mxGeometry>
        </mxCell>
        <mxCell id="is16e7ybyZsDc-lX8646-15" value="Б" style="ellipse;whiteSpace=wrap;html=1;aspect=fixed;strokeWidth=2;fontFamily=Times New Roman;fontSize=12;" parent="is16e7ybyZsDc-lX8646-1" vertex="1">
          <mxGeometry x="995" y="185" width="40" height="40" as="geometry" />
        </mxCell>
        <mxCell id="is16e7ybyZsDc-lX8646-16" value="" style="endArrow=classic;html=1;fontFamily=Times New Roman;fontSize=12;" parent="is16e7ybyZsDc-lX8646-1" edge="1">
          <mxGeometry width="50" height="50" relative="1" as="geometry">
            <mxPoint x="1035" y="205" as="sourcePoint" />
            <mxPoint x="1065" y="205" as="targetPoint" />
          </mxGeometry>
        </mxCell>
        <mxCell id="is16e7ybyZsDc-lX8646-17" value="Пункт меню" style="rhombus;whiteSpace=wrap;html=1;strokeWidth=2;fontFamily=Times New Roman;" parent="is16e7ybyZsDc-lX8646-1" vertex="1">
          <mxGeometry x="1205" y="461" width="120" height="80" as="geometry" />
        </mxCell>
        <mxCell id="is16e7ybyZsDc-lX8646-18" value="" style="endArrow=none;html=1;fontFamily=Times New Roman;" parent="is16e7ybyZsDc-lX8646-1" edge="1">
          <mxGeometry width="50" height="50" relative="1" as="geometry">
            <mxPoint x="1265" y="951" as="sourcePoint" />
            <mxPoint x="1265" y="541" as="targetPoint" />
          </mxGeometry>
        </mxCell>
        <mxCell id="is16e7ybyZsDc-lX8646-19" value="" style="endArrow=classic;html=1;entryX=0;entryY=0.5;entryDx=0;entryDy=0;fontFamily=Times New Roman;" parent="is16e7ybyZsDc-lX8646-1" target="is16e7ybyZsDc-lX8646-20" edge="1">
          <mxGeometry width="50" height="50" relative="1" as="geometry">
            <mxPoint x="1265" y="570.5" as="sourcePoint" />
            <mxPoint x="1315" y="570.5" as="targetPoint" />
          </mxGeometry>
        </mxCell>
        <mxCell id="is16e7ybyZsDc-lX8646-20" value="Поиск по номеру автобазы&lt;span style=&quot;white-space: pre&quot;&gt;	&lt;/span&gt;&lt;br&gt;search_ID" style="shape=process;whiteSpace=wrap;html=1;backgroundOutline=1;strokeWidth=2;fontFamily=Times New Roman;" parent="is16e7ybyZsDc-lX8646-1" vertex="1">
          <mxGeometry x="1325" y="531" width="120" height="80" as="geometry" />
        </mxCell>
        <mxCell id="is16e7ybyZsDc-lX8646-21" value="" style="endArrow=classic;html=1;entryX=0;entryY=0.5;entryDx=0;entryDy=0;fontFamily=Times New Roman;" parent="is16e7ybyZsDc-lX8646-1" target="is16e7ybyZsDc-lX8646-22" edge="1">
          <mxGeometry width="50" height="50" relative="1" as="geometry">
            <mxPoint x="1265" y="670.5" as="sourcePoint" />
            <mxPoint x="1315" y="670.5" as="targetPoint" />
          </mxGeometry>
        </mxCell>
        <mxCell id="is16e7ybyZsDc-lX8646-22" value="Поиск по инициалам директора&lt;br&gt;search_depotID" style="shape=process;whiteSpace=wrap;html=1;backgroundOutline=1;strokeWidth=2;fontFamily=Times New Roman;" parent="is16e7ybyZsDc-lX8646-1" vertex="1">
          <mxGeometry x="1325" y="631" width="120" height="80" as="geometry" />
        </mxCell>
        <mxCell id="is16e7ybyZsDc-lX8646-23" value="" style="endArrow=classic;html=1;entryX=0;entryY=0.5;entryDx=0;entryDy=0;fontFamily=Times New Roman;" parent="is16e7ybyZsDc-lX8646-1" target="is16e7ybyZsDc-lX8646-24" edge="1">
          <mxGeometry width="50" height="50" relative="1" as="geometry">
            <mxPoint x="1265" y="770.5" as="sourcePoint" />
            <mxPoint x="1315" y="770.5" as="targetPoint" />
          </mxGeometry>
        </mxCell>
        <mxCell id="is16e7ybyZsDc-lX8646-24" value="Поиск по расходу топлива&lt;br&gt;search_name" style="shape=process;whiteSpace=wrap;html=1;backgroundOutline=1;strokeWidth=2;fontFamily=Times New Roman;" parent="is16e7ybyZsDc-lX8646-1" vertex="1">
          <mxGeometry x="1325" y="731" width="120" height="80" as="geometry" />
        </mxCell>
        <mxCell id="is16e7ybyZsDc-lX8646-25" value="" style="endArrow=classic;html=1;exitX=0.5;exitY=1;exitDx=0;exitDy=0;fontFamily=Times New Roman;entryX=0.5;entryY=0;entryDx=0;entryDy=0;" parent="is16e7ybyZsDc-lX8646-1" edge="1" target="kFeOVRZBqaZi3I3mp7Up-0">
          <mxGeometry width="50" height="50" relative="1" as="geometry">
            <mxPoint x="1265" y="315" as="sourcePoint" />
            <mxPoint x="1265" y="355" as="targetPoint" />
          </mxGeometry>
        </mxCell>
        <mxCell id="is16e7ybyZsDc-lX8646-26" value="case 0:" style="text;html=1;align=center;verticalAlign=middle;resizable=0;points=[];autosize=1;strokeColor=none;fillColor=none;fontFamily=Times New Roman;" parent="is16e7ybyZsDc-lX8646-1" vertex="1">
          <mxGeometry x="1275" y="551" width="50" height="20" as="geometry" />
        </mxCell>
        <mxCell id="is16e7ybyZsDc-lX8646-27" value="case 1:" style="text;html=1;align=center;verticalAlign=middle;resizable=0;points=[];autosize=1;strokeColor=none;fillColor=none;fontFamily=Times New Roman;" parent="is16e7ybyZsDc-lX8646-1" vertex="1">
          <mxGeometry x="1275" y="651" width="50" height="20" as="geometry" />
        </mxCell>
        <mxCell id="is16e7ybyZsDc-lX8646-28" value="case 2:" style="text;html=1;align=center;verticalAlign=middle;resizable=0;points=[];autosize=1;strokeColor=none;fillColor=none;fontFamily=Times New Roman;" parent="is16e7ybyZsDc-lX8646-1" vertex="1">
          <mxGeometry x="1275" y="751" width="50" height="20" as="geometry" />
        </mxCell>
        <mxCell id="is16e7ybyZsDc-lX8646-29" value="Поиск по количеству автомашин&lt;br&gt;search_&lt;br&gt;fuelConsumed" style="shape=process;whiteSpace=wrap;html=1;backgroundOutline=1;strokeWidth=2;fontFamily=Times New Roman;" parent="is16e7ybyZsDc-lX8646-1" vertex="1">
          <mxGeometry x="1325" y="831" width="120" height="80" as="geometry" />
        </mxCell>
        <mxCell id="is16e7ybyZsDc-lX8646-30" value="" style="endArrow=classic;html=1;fontFamily=Times New Roman;" parent="is16e7ybyZsDc-lX8646-1" edge="1">
          <mxGeometry width="50" height="50" relative="1" as="geometry">
            <mxPoint x="1265" y="870.5799999999999" as="sourcePoint" />
            <mxPoint x="1325" y="870.5799999999999" as="targetPoint" />
          </mxGeometry>
        </mxCell>
        <mxCell id="is16e7ybyZsDc-lX8646-31" value="case 3:" style="text;html=1;align=center;verticalAlign=middle;resizable=0;points=[];autosize=1;strokeColor=none;fillColor=none;fontFamily=Times New Roman;" parent="is16e7ybyZsDc-lX8646-1" vertex="1">
          <mxGeometry x="1275" y="851" width="50" height="20" as="geometry" />
        </mxCell>
        <mxCell id="is16e7ybyZsDc-lX8646-32" value="case 4:" style="text;html=1;align=center;verticalAlign=middle;resizable=0;points=[];autosize=1;strokeColor=none;fillColor=none;fontFamily=Times New Roman;" parent="is16e7ybyZsDc-lX8646-1" vertex="1">
          <mxGeometry x="1275" y="931" width="50" height="20" as="geometry" />
        </mxCell>
        <mxCell id="is16e7ybyZsDc-lX8646-33" value="" style="endArrow=classic;html=1;fontFamily=Times New Roman;" parent="is16e7ybyZsDc-lX8646-1" edge="1">
          <mxGeometry width="50" height="50" relative="1" as="geometry">
            <mxPoint x="1445" y="571" as="sourcePoint" />
            <mxPoint x="1465" y="571" as="targetPoint" />
          </mxGeometry>
        </mxCell>
        <mxCell id="is16e7ybyZsDc-lX8646-34" value="" style="endArrow=classic;html=1;fontFamily=Times New Roman;" parent="is16e7ybyZsDc-lX8646-1" edge="1">
          <mxGeometry width="50" height="50" relative="1" as="geometry">
            <mxPoint x="1445" y="671" as="sourcePoint" />
            <mxPoint x="1465" y="671" as="targetPoint" />
          </mxGeometry>
        </mxCell>
        <mxCell id="is16e7ybyZsDc-lX8646-35" value="" style="endArrow=classic;html=1;fontFamily=Times New Roman;" parent="is16e7ybyZsDc-lX8646-1" edge="1">
          <mxGeometry width="50" height="50" relative="1" as="geometry">
            <mxPoint x="1445" y="771" as="sourcePoint" />
            <mxPoint x="1465" y="771" as="targetPoint" />
          </mxGeometry>
        </mxCell>
        <mxCell id="is16e7ybyZsDc-lX8646-36" value="" style="endArrow=classic;html=1;fontFamily=Times New Roman;" parent="is16e7ybyZsDc-lX8646-1" source="is16e7ybyZsDc-lX8646-29" edge="1">
          <mxGeometry width="50" height="50" relative="1" as="geometry">
            <mxPoint x="1445" y="871" as="sourcePoint" />
            <mxPoint x="1465" y="871" as="targetPoint" />
          </mxGeometry>
        </mxCell>
        <mxCell id="is16e7ybyZsDc-lX8646-37" value="" style="endArrow=classic;html=1;fontFamily=Times New Roman;" parent="is16e7ybyZsDc-lX8646-1" edge="1">
          <mxGeometry width="50" height="50" relative="1" as="geometry">
            <mxPoint x="1465" y="571" as="sourcePoint" />
            <mxPoint x="1465" y="931" as="targetPoint" />
          </mxGeometry>
        </mxCell>
        <mxCell id="is16e7ybyZsDc-lX8646-38" value="" style="endArrow=classic;html=1;fontFamily=Times New Roman;" parent="is16e7ybyZsDc-lX8646-1" edge="1">
          <mxGeometry width="50" height="50" relative="1" as="geometry">
            <mxPoint x="1265" y="950.5700000000002" as="sourcePoint" />
            <mxPoint x="1445" y="950.5700000000002" as="targetPoint" />
          </mxGeometry>
        </mxCell>
        <mxCell id="is16e7ybyZsDc-lX8646-39" value="Б" style="ellipse;whiteSpace=wrap;html=1;aspect=fixed;strokeWidth=2;fontFamily=Times New Roman;" parent="is16e7ybyZsDc-lX8646-1" vertex="1">
          <mxGeometry x="1445" y="931" width="40" height="40" as="geometry" />
        </mxCell>
        <mxCell id="is16e7ybyZsDc-lX8646-40" value="3" style="text;html=1;align=center;verticalAlign=middle;resizable=0;points=[];autosize=1;strokeColor=none;fillColor=none;fontSize=12;fontFamily=Times New Roman;" parent="is16e7ybyZsDc-lX8646-1" vertex="1">
          <mxGeometry x="1205" y="340" width="20" height="20" as="geometry" />
        </mxCell>
        <mxCell id="is16e7ybyZsDc-lX8646-41" value="4" style="text;html=1;align=center;verticalAlign=middle;resizable=0;points=[];autosize=1;strokeColor=none;fillColor=none;fontSize=12;fontFamily=Times New Roman;" parent="is16e7ybyZsDc-lX8646-1" vertex="1">
          <mxGeometry x="1221" y="461" width="20" height="20" as="geometry" />
        </mxCell>
        <mxCell id="is16e7ybyZsDc-lX8646-42" value="5" style="text;html=1;align=center;verticalAlign=middle;resizable=0;points=[];autosize=1;strokeColor=none;fillColor=none;fontSize=12;fontFamily=Times New Roman;" parent="is16e7ybyZsDc-lX8646-1" vertex="1">
          <mxGeometry x="1322" y="513" width="20" height="20" as="geometry" />
        </mxCell>
        <mxCell id="is16e7ybyZsDc-lX8646-43" value="6" style="text;html=1;align=center;verticalAlign=middle;resizable=0;points=[];autosize=1;strokeColor=none;fillColor=none;fontSize=12;fontFamily=Times New Roman;" parent="is16e7ybyZsDc-lX8646-1" vertex="1">
          <mxGeometry x="1321" y="614" width="20" height="20" as="geometry" />
        </mxCell>
        <mxCell id="is16e7ybyZsDc-lX8646-44" value="7" style="text;html=1;align=center;verticalAlign=middle;resizable=0;points=[];autosize=1;strokeColor=none;fillColor=none;fontSize=12;fontFamily=Times New Roman;" parent="is16e7ybyZsDc-lX8646-1" vertex="1">
          <mxGeometry x="1323" y="713" width="20" height="20" as="geometry" />
        </mxCell>
        <mxCell id="is16e7ybyZsDc-lX8646-45" value="2" style="text;html=1;align=center;verticalAlign=middle;resizable=0;points=[];autosize=1;strokeColor=none;fillColor=none;" parent="is16e7ybyZsDc-lX8646-1" vertex="1">
          <mxGeometry x="1205" y="215" width="20" height="20" as="geometry" />
        </mxCell>
        <mxCell id="kFeOVRZBqaZi3I3mp7Up-0" value="Выбор пункта меню&lt;br&gt;menuItem" style="shape=process;whiteSpace=wrap;html=1;backgroundOutline=1;strokeWidth=2;fontFamily=Times New Roman;fontSize=12;align=center;" vertex="1" parent="is16e7ybyZsDc-lX8646-1">
          <mxGeometry x="1205" y="360" width="120" height="80" as="geometry" />
        </mxCell>
        <mxCell id="kFeOVRZBqaZi3I3mp7Up-1" value="" style="endArrow=classic;html=1;rounded=0;fontFamily=Times New Roman;fontSize=14;" edge="1" parent="is16e7ybyZsDc-lX8646-1" source="kFeOVRZBqaZi3I3mp7Up-0">
          <mxGeometry width="50" height="50" relative="1" as="geometry">
            <mxPoint x="1265" y="440" as="sourcePoint" />
            <mxPoint x="1265" y="460" as="targetPoint" />
          </mxGeometry>
        </mxCell>
        <mxCell id="kFeOVRZBqaZi3I3mp7Up-2" value="8" style="text;html=1;align=center;verticalAlign=middle;resizable=0;points=[];autosize=1;strokeColor=none;fillColor=none;fontSize=14;fontFamily=Times New Roman;" vertex="1" parent="is16e7ybyZsDc-lX8646-1">
          <mxGeometry x="1324" y="814" width="20" height="20" as="geometry" />
        </mxCell>
      </root>
    </mxGraphModel>
  </diagram>
  <diagram id="o0JFjv3MsZTJ9VZtSjIM" name="Обработка">
    <mxGraphModel dx="1422" dy="762" grid="1" gridSize="10" guides="1" tooltips="1" connect="1" arrows="1" fold="1" page="1" pageScale="1" pageWidth="827" pageHeight="1169" math="0" shadow="0">
      <root>
        <mxCell id="f9tfjibZnwLW4jwV9YUb-0" />
        <mxCell id="f9tfjibZnwLW4jwV9YUb-1" parent="f9tfjibZnwLW4jwV9YUb-0" />
      </root>
    </mxGraphModel>
  </diagram>
  <diagram id="GKGEsojRYVMSAzbrPjcr" name="Меню">
    <mxGraphModel dx="700" dy="752" grid="1" gridSize="10" guides="1" tooltips="1" connect="1" arrows="1" fold="1" page="1" pageScale="1" pageWidth="827" pageHeight="1169" math="0" shadow="0">
      <root>
        <mxCell id="tUiD2NWvk8mmJa7Fbsnq-0" />
        <mxCell id="tUiD2NWvk8mmJa7Fbsnq-1" parent="tUiD2NWvk8mmJa7Fbsnq-0" />
      </root>
    </mxGraphModel>
  </diagram>
  <diagram id="QnVDvuy5iItyO4oGaM0I" name="Ввод">
    <mxGraphModel dx="1422" dy="762" grid="1" gridSize="10" guides="1" tooltips="1" connect="1" arrows="1" fold="1" page="1" pageScale="1" pageWidth="827" pageHeight="1169" math="0" shadow="0">
      <root>
        <mxCell id="_dZF22LrrU6qM4SyUPSZ-0" />
        <mxCell id="_dZF22LrrU6qM4SyUPSZ-1" parent="_dZF22LrrU6qM4SyUPSZ-0" />
      </root>
    </mxGraphModel>
  </diagram>
  <diagram id="qiWj2QGidhCYJsk1Uyyj" name="Корректировка">
    <mxGraphModel dx="1497" dy="802" grid="1" gridSize="10" guides="1" tooltips="1" connect="1" arrows="1" fold="1" page="1" pageScale="1" pageWidth="827" pageHeight="1169" math="0" shadow="0">
      <root>
        <mxCell id="6wI7gTQ5i25AIN33nwqf-0" />
        <mxCell id="6wI7gTQ5i25AIN33nwqf-1" parent="6wI7gTQ5i25AIN33nwqf-0" />
        <mxCell id="8_Uuybjnfx-3ilLMauyB-0" value="Выбор пункта меню&lt;br&gt;menuItem" style="shape=process;whiteSpace=wrap;html=1;backgroundOutline=1;strokeWidth=2;fontFamily=Times New Roman;fontSize=12;align=center;" vertex="1" parent="6wI7gTQ5i25AIN33nwqf-1">
          <mxGeometry x="460" y="310" width="120" height="80" as="geometry" />
        </mxCell>
        <mxCell id="8_Uuybjnfx-3ilLMauyB-1" value="Пункт меню" style="rhombus;whiteSpace=wrap;html=1;strokeWidth=2;fontFamily=Times New Roman;" vertex="1" parent="6wI7gTQ5i25AIN33nwqf-1">
          <mxGeometry x="460" y="430" width="120" height="80" as="geometry" />
        </mxCell>
        <mxCell id="8_Uuybjnfx-3ilLMauyB-2" value="" style="endArrow=none;html=1;fontFamily=Times New Roman;" edge="1" parent="6wI7gTQ5i25AIN33nwqf-1">
          <mxGeometry width="50" height="50" relative="1" as="geometry">
            <mxPoint x="520" y="920" as="sourcePoint" />
            <mxPoint x="520" y="510" as="targetPoint" />
          </mxGeometry>
        </mxCell>
        <mxCell id="8_Uuybjnfx-3ilLMauyB-3" value="" style="endArrow=classic;html=1;entryX=0;entryY=0.5;entryDx=0;entryDy=0;fontFamily=Times New Roman;" edge="1" parent="6wI7gTQ5i25AIN33nwqf-1">
          <mxGeometry width="50" height="50" relative="1" as="geometry">
            <mxPoint x="520" y="539.4999999999998" as="sourcePoint" />
            <mxPoint x="580" y="540" as="targetPoint" />
          </mxGeometry>
        </mxCell>
        <mxCell id="8_Uuybjnfx-3ilLMauyB-5" value="" style="endArrow=classic;html=1;entryX=0;entryY=0.5;entryDx=0;entryDy=0;fontFamily=Times New Roman;" edge="1" parent="6wI7gTQ5i25AIN33nwqf-1">
          <mxGeometry width="50" height="50" relative="1" as="geometry">
            <mxPoint x="520" y="639.4999999999998" as="sourcePoint" />
            <mxPoint x="580" y="640" as="targetPoint" />
          </mxGeometry>
        </mxCell>
        <mxCell id="8_Uuybjnfx-3ilLMauyB-7" value="" style="endArrow=classic;html=1;entryX=0;entryY=0.5;entryDx=0;entryDy=0;fontFamily=Times New Roman;" edge="1" parent="6wI7gTQ5i25AIN33nwqf-1">
          <mxGeometry width="50" height="50" relative="1" as="geometry">
            <mxPoint x="520" y="739.4999999999998" as="sourcePoint" />
            <mxPoint x="580" y="740" as="targetPoint" />
          </mxGeometry>
        </mxCell>
        <mxCell id="8_Uuybjnfx-3ilLMauyB-9" value="" style="endArrow=classic;html=1;exitX=0.5;exitY=1;exitDx=0;exitDy=0;fontFamily=Times New Roman;" edge="1" parent="6wI7gTQ5i25AIN33nwqf-1" source="8_Uuybjnfx-3ilLMauyB-0">
          <mxGeometry width="50" height="50" relative="1" as="geometry">
            <mxPoint x="520" y="410" as="sourcePoint" />
            <mxPoint x="520" y="430" as="targetPoint" />
          </mxGeometry>
        </mxCell>
        <mxCell id="8_Uuybjnfx-3ilLMauyB-10" value="case 0:" style="text;html=1;align=center;verticalAlign=middle;resizable=0;points=[];autosize=1;strokeColor=none;fillColor=none;fontFamily=Times New Roman;" vertex="1" parent="6wI7gTQ5i25AIN33nwqf-1">
          <mxGeometry x="530" y="520" width="50" height="20" as="geometry" />
        </mxCell>
        <mxCell id="8_Uuybjnfx-3ilLMauyB-11" value="case 1:" style="text;html=1;align=center;verticalAlign=middle;resizable=0;points=[];autosize=1;strokeColor=none;fillColor=none;fontFamily=Times New Roman;" vertex="1" parent="6wI7gTQ5i25AIN33nwqf-1">
          <mxGeometry x="530" y="620" width="50" height="20" as="geometry" />
        </mxCell>
        <mxCell id="8_Uuybjnfx-3ilLMauyB-12" value="case 2:" style="text;html=1;align=center;verticalAlign=middle;resizable=0;points=[];autosize=1;strokeColor=none;fillColor=none;fontFamily=Times New Roman;" vertex="1" parent="6wI7gTQ5i25AIN33nwqf-1">
          <mxGeometry x="530" y="720" width="50" height="20" as="geometry" />
        </mxCell>
        <mxCell id="8_Uuybjnfx-3ilLMauyB-14" value="" style="endArrow=classic;html=1;fontFamily=Times New Roman;" edge="1" parent="6wI7gTQ5i25AIN33nwqf-1">
          <mxGeometry width="50" height="50" relative="1" as="geometry">
            <mxPoint x="520" y="839.5799999999999" as="sourcePoint" />
            <mxPoint x="580" y="839.5799999999999" as="targetPoint" />
          </mxGeometry>
        </mxCell>
        <mxCell id="8_Uuybjnfx-3ilLMauyB-15" value="case 3:" style="text;html=1;align=center;verticalAlign=middle;resizable=0;points=[];autosize=1;strokeColor=none;fillColor=none;fontFamily=Times New Roman;" vertex="1" parent="6wI7gTQ5i25AIN33nwqf-1">
          <mxGeometry x="530" y="820" width="50" height="20" as="geometry" />
        </mxCell>
        <mxCell id="8_Uuybjnfx-3ilLMauyB-16" value="case 4:" style="text;html=1;align=center;verticalAlign=middle;resizable=0;points=[];autosize=1;strokeColor=none;fillColor=none;fontFamily=Times New Roman;" vertex="1" parent="6wI7gTQ5i25AIN33nwqf-1">
          <mxGeometry x="530" y="900" width="50" height="20" as="geometry" />
        </mxCell>
        <mxCell id="8_Uuybjnfx-3ilLMauyB-17" value="" style="endArrow=classic;html=1;fontFamily=Times New Roman;" edge="1" parent="6wI7gTQ5i25AIN33nwqf-1">
          <mxGeometry width="50" height="50" relative="1" as="geometry">
            <mxPoint x="700" y="540" as="sourcePoint" />
            <mxPoint x="720" y="540" as="targetPoint" />
          </mxGeometry>
        </mxCell>
        <mxCell id="8_Uuybjnfx-3ilLMauyB-18" value="" style="endArrow=classic;html=1;fontFamily=Times New Roman;" edge="1" parent="6wI7gTQ5i25AIN33nwqf-1">
          <mxGeometry width="50" height="50" relative="1" as="geometry">
            <mxPoint x="700" y="640" as="sourcePoint" />
            <mxPoint x="720" y="640" as="targetPoint" />
          </mxGeometry>
        </mxCell>
        <mxCell id="8_Uuybjnfx-3ilLMauyB-19" value="" style="endArrow=classic;html=1;fontFamily=Times New Roman;" edge="1" parent="6wI7gTQ5i25AIN33nwqf-1">
          <mxGeometry width="50" height="50" relative="1" as="geometry">
            <mxPoint x="700" y="740" as="sourcePoint" />
            <mxPoint x="720" y="740" as="targetPoint" />
          </mxGeometry>
        </mxCell>
        <mxCell id="8_Uuybjnfx-3ilLMauyB-20" value="" style="endArrow=classic;html=1;fontFamily=Times New Roman;" edge="1" parent="6wI7gTQ5i25AIN33nwqf-1">
          <mxGeometry width="50" height="50" relative="1" as="geometry">
            <mxPoint x="700" y="840" as="sourcePoint" />
            <mxPoint x="720" y="840" as="targetPoint" />
          </mxGeometry>
        </mxCell>
        <mxCell id="8_Uuybjnfx-3ilLMauyB-21" value="" style="endArrow=classic;html=1;fontFamily=Times New Roman;" edge="1" parent="6wI7gTQ5i25AIN33nwqf-1">
          <mxGeometry width="50" height="50" relative="1" as="geometry">
            <mxPoint x="719.5699999999997" y="540" as="sourcePoint" />
            <mxPoint x="719.5699999999997" y="900" as="targetPoint" />
          </mxGeometry>
        </mxCell>
        <mxCell id="8_Uuybjnfx-3ilLMauyB-22" value="" style="endArrow=classic;html=1;fontFamily=Times New Roman;" edge="1" parent="6wI7gTQ5i25AIN33nwqf-1">
          <mxGeometry width="50" height="50" relative="1" as="geometry">
            <mxPoint x="520" y="919.5700000000002" as="sourcePoint" />
            <mxPoint x="700" y="919.5700000000002" as="targetPoint" />
          </mxGeometry>
        </mxCell>
        <mxCell id="8_Uuybjnfx-3ilLMauyB-23" value="А" style="ellipse;whiteSpace=wrap;html=1;aspect=fixed;strokeWidth=2;fontFamily=Times New Roman;" vertex="1" parent="6wI7gTQ5i25AIN33nwqf-1">
          <mxGeometry x="700" y="900" width="40" height="40" as="geometry" />
        </mxCell>
        <mxCell id="8_Uuybjnfx-3ilLMauyB-24" value="Список не пуст?" style="rhombus;whiteSpace=wrap;html=1;strokeWidth=2;fontFamily=Times New Roman;" vertex="1" parent="6wI7gTQ5i25AIN33nwqf-1">
          <mxGeometry x="360" y="130" width="120" height="80" as="geometry" />
        </mxCell>
        <mxCell id="8_Uuybjnfx-3ilLMauyB-25" value="" style="endArrow=classic;html=1;fontFamily=Times New Roman;" edge="1" parent="6wI7gTQ5i25AIN33nwqf-1">
          <mxGeometry width="50" height="50" relative="1" as="geometry">
            <mxPoint x="360" y="170" as="sourcePoint" />
            <mxPoint x="320" y="170" as="targetPoint" />
          </mxGeometry>
        </mxCell>
        <mxCell id="8_Uuybjnfx-3ilLMauyB-26" value="" style="endArrow=classic;html=1;fontFamily=Times New Roman;" edge="1" parent="6wI7gTQ5i25AIN33nwqf-1" source="8_Uuybjnfx-3ilLMauyB-24">
          <mxGeometry width="50" height="50" relative="1" as="geometry">
            <mxPoint x="480" y="170" as="sourcePoint" />
            <mxPoint x="520" y="170" as="targetPoint" />
          </mxGeometry>
        </mxCell>
        <mxCell id="8_Uuybjnfx-3ilLMauyB-27" value="" style="endArrow=none;html=1;fontFamily=Times New Roman;" edge="1" parent="6wI7gTQ5i25AIN33nwqf-1">
          <mxGeometry width="50" height="50" relative="1" as="geometry">
            <mxPoint x="420" y="130" as="sourcePoint" />
            <mxPoint x="420" y="110" as="targetPoint" />
          </mxGeometry>
        </mxCell>
        <mxCell id="8_Uuybjnfx-3ilLMauyB-28" value="Да" style="text;html=1;align=center;verticalAlign=middle;resizable=0;points=[];autosize=1;fontFamily=Times New Roman;" vertex="1" parent="6wI7gTQ5i25AIN33nwqf-1">
          <mxGeometry x="485" y="150" width="30" height="20" as="geometry" />
        </mxCell>
        <mxCell id="8_Uuybjnfx-3ilLMauyB-29" value="Нет" style="text;html=1;align=center;verticalAlign=middle;resizable=0;points=[];autosize=1;fontFamily=Times New Roman;" vertex="1" parent="6wI7gTQ5i25AIN33nwqf-1">
          <mxGeometry x="330" y="150" width="30" height="20" as="geometry" />
        </mxCell>
        <mxCell id="8_Uuybjnfx-3ilLMauyB-30" value="" style="endArrow=classic;html=1;fontFamily=Times New Roman;" edge="1" parent="6wI7gTQ5i25AIN33nwqf-1">
          <mxGeometry width="50" height="50" relative="1" as="geometry">
            <mxPoint x="320" y="170" as="sourcePoint" />
            <mxPoint x="320" y="220" as="targetPoint" />
          </mxGeometry>
        </mxCell>
        <mxCell id="8_Uuybjnfx-3ilLMauyB-33" value="&lt;font style=&quot;font-size: 12px&quot;&gt;1&lt;/font&gt;" style="text;html=1;align=center;verticalAlign=middle;resizable=0;points=[];autosize=1;strokeColor=none;fillColor=none;fontSize=24;fontFamily=Times New Roman;" vertex="1" parent="6wI7gTQ5i25AIN33nwqf-1">
          <mxGeometry x="370" y="120" width="20" height="40" as="geometry" />
        </mxCell>
        <mxCell id="8_Uuybjnfx-3ilLMauyB-34" value="4" style="text;html=1;align=center;verticalAlign=middle;resizable=0;points=[];autosize=1;strokeColor=none;fillColor=none;fontSize=12;fontFamily=Times New Roman;" vertex="1" parent="6wI7gTQ5i25AIN33nwqf-1">
          <mxGeometry x="465" y="430" width="20" height="20" as="geometry" />
        </mxCell>
        <mxCell id="8_Uuybjnfx-3ilLMauyB-35" value="5" style="text;html=1;align=center;verticalAlign=middle;resizable=0;points=[];autosize=1;strokeColor=none;fillColor=none;fontSize=12;fontFamily=Times New Roman;" vertex="1" parent="6wI7gTQ5i25AIN33nwqf-1">
          <mxGeometry x="580" y="480" width="20" height="20" as="geometry" />
        </mxCell>
        <mxCell id="8_Uuybjnfx-3ilLMauyB-36" value="6" style="text;html=1;align=center;verticalAlign=middle;resizable=0;points=[];autosize=1;strokeColor=none;fillColor=none;fontSize=12;fontFamily=Times New Roman;" vertex="1" parent="6wI7gTQ5i25AIN33nwqf-1">
          <mxGeometry x="580" y="580" width="20" height="20" as="geometry" />
        </mxCell>
        <mxCell id="8_Uuybjnfx-3ilLMauyB-37" value="7" style="text;html=1;align=center;verticalAlign=middle;resizable=0;points=[];autosize=1;strokeColor=none;fillColor=none;fontSize=12;fontFamily=Times New Roman;" vertex="1" parent="6wI7gTQ5i25AIN33nwqf-1">
          <mxGeometry x="580" y="680" width="20" height="20" as="geometry" />
        </mxCell>
        <mxCell id="8_Uuybjnfx-3ilLMauyB-38" value="Инициализация переменных" style="whiteSpace=wrap;html=1;strokeWidth=2;fontFamily=Times New Roman;fontSize=12;" vertex="1" parent="6wI7gTQ5i25AIN33nwqf-1">
          <mxGeometry x="460" y="210" width="120" height="80" as="geometry" />
        </mxCell>
        <mxCell id="8_Uuybjnfx-3ilLMauyB-39" value="" style="endArrow=classic;html=1;fontFamily=Times New Roman;fontSize=12;entryX=0.5;entryY=0;entryDx=0;entryDy=0;" edge="1" parent="6wI7gTQ5i25AIN33nwqf-1" target="8_Uuybjnfx-3ilLMauyB-38">
          <mxGeometry width="50" height="50" relative="1" as="geometry">
            <mxPoint x="520" y="170" as="sourcePoint" />
            <mxPoint x="540" y="170" as="targetPoint" />
          </mxGeometry>
        </mxCell>
        <mxCell id="8_Uuybjnfx-3ilLMauyB-40" value="" style="endArrow=classic;html=1;fontFamily=Times New Roman;fontSize=12;" edge="1" parent="6wI7gTQ5i25AIN33nwqf-1">
          <mxGeometry width="50" height="50" relative="1" as="geometry">
            <mxPoint x="520" y="290" as="sourcePoint" />
            <mxPoint x="520" y="310" as="targetPoint" />
          </mxGeometry>
        </mxCell>
        <mxCell id="8_Uuybjnfx-3ilLMauyB-41" value="А" style="ellipse;whiteSpace=wrap;html=1;aspect=fixed;strokeWidth=2;fontFamily=Times New Roman;fontSize=12;" vertex="1" parent="6wI7gTQ5i25AIN33nwqf-1">
          <mxGeometry x="250" y="160" width="40" height="40" as="geometry" />
        </mxCell>
        <mxCell id="8_Uuybjnfx-3ilLMauyB-42" value="" style="endArrow=classic;html=1;fontFamily=Times New Roman;fontSize=12;" edge="1" parent="6wI7gTQ5i25AIN33nwqf-1">
          <mxGeometry width="50" height="50" relative="1" as="geometry">
            <mxPoint x="290" y="180" as="sourcePoint" />
            <mxPoint x="320" y="180" as="targetPoint" />
          </mxGeometry>
        </mxCell>
        <mxCell id="8_Uuybjnfx-3ilLMauyB-43" value="2" style="text;html=1;align=center;verticalAlign=middle;resizable=0;points=[];autosize=1;strokeColor=none;fillColor=none;" vertex="1" parent="6wI7gTQ5i25AIN33nwqf-1">
          <mxGeometry x="460" y="190" width="20" height="20" as="geometry" />
        </mxCell>
        <mxCell id="8_Uuybjnfx-3ilLMauyB-44" value="3" style="text;html=1;align=center;verticalAlign=middle;resizable=0;points=[];autosize=1;strokeColor=none;fillColor=none;" vertex="1" parent="6wI7gTQ5i25AIN33nwqf-1">
          <mxGeometry x="460" y="290" width="20" height="20" as="geometry" />
        </mxCell>
        <mxCell id="8_Uuybjnfx-3ilLMauyB-45" value="8" style="text;html=1;align=center;verticalAlign=middle;resizable=0;points=[];autosize=1;strokeColor=none;fillColor=none;" vertex="1" parent="6wI7gTQ5i25AIN33nwqf-1">
          <mxGeometry x="580" y="780" width="20" height="20" as="geometry" />
        </mxCell>
        <mxCell id="8_Uuybjnfx-3ilLMauyB-47" value="&lt;font style=&quot;font-size: 14px&quot;&gt;edit&lt;br&gt;Начало&lt;/font&gt;" style="strokeWidth=2;html=1;shape=mxgraph.flowchart.terminator;whiteSpace=wrap;fontFamily=Times New Roman;" vertex="1" parent="6wI7gTQ5i25AIN33nwqf-1">
          <mxGeometry x="360" y="70" width="120" height="40" as="geometry" />
        </mxCell>
        <mxCell id="8_Uuybjnfx-3ilLMauyB-48" value="&lt;font style=&quot;font-size: 14px&quot;&gt;edit&lt;br&gt;Конец&lt;/font&gt;" style="strokeWidth=2;html=1;shape=mxgraph.flowchart.terminator;whiteSpace=wrap;fontFamily=Times New Roman;" vertex="1" parent="6wI7gTQ5i25AIN33nwqf-1">
          <mxGeometry x="260" y="220" width="120" height="40" as="geometry" />
        </mxCell>
        <mxCell id="8_Uuybjnfx-3ilLMauyB-49" value="Изменение номера автобазы" style="rounded=0;whiteSpace=wrap;html=1;strokeWidth=2;fontFamily=Times New Roman;fontSize=14;fontColor=rgb(0, 0, 0);align=center;strokeColor=rgb(0, 0, 0);fillColor=rgb(255, 255, 255);" vertex="1" parent="6wI7gTQ5i25AIN33nwqf-1">
          <mxGeometry x="580" y="500" width="120" height="80" as="geometry" />
        </mxCell>
        <mxCell id="8_Uuybjnfx-3ilLMauyB-50" value="Изменение инициалов директора" style="rounded=0;whiteSpace=wrap;html=1;strokeWidth=2;fontFamily=Times New Roman;fontSize=14;fontColor=rgb(0, 0, 0);align=center;strokeColor=rgb(0, 0, 0);fillColor=rgb(255, 255, 255);" vertex="1" parent="6wI7gTQ5i25AIN33nwqf-1">
          <mxGeometry x="580" y="602" width="120" height="80" as="geometry" />
        </mxCell>
        <mxCell id="8_Uuybjnfx-3ilLMauyB-51" value="Изменение расхода топлива" style="rounded=0;whiteSpace=wrap;html=1;strokeWidth=2;fontFamily=Times New Roman;fontSize=14;fontColor=rgb(0, 0, 0);align=center;strokeColor=rgb(0, 0, 0);fillColor=rgb(255, 255, 255);" vertex="1" parent="6wI7gTQ5i25AIN33nwqf-1">
          <mxGeometry x="580" y="700" width="120" height="80" as="geometry" />
        </mxCell>
        <mxCell id="8_Uuybjnfx-3ilLMauyB-52" value="Изменение количества автомашин" style="rounded=0;whiteSpace=wrap;html=1;strokeWidth=2;fontFamily=Times New Roman;fontSize=14;fontColor=rgb(0, 0, 0);align=center;strokeColor=rgb(0, 0, 0);fillColor=rgb(255, 255, 255);" vertex="1" parent="6wI7gTQ5i25AIN33nwqf-1">
          <mxGeometry x="580" y="800" width="120" height="80" as="geometry" />
        </mxCell>
      </root>
    </mxGraphModel>
  </diagram>
  <diagram id="MgA1c8trdfsKOOv2LlkO" name="Запись в файл">
    <mxGraphModel dx="700" dy="752" grid="1" gridSize="10" guides="1" tooltips="1" connect="1" arrows="1" fold="1" page="1" pageScale="1" pageWidth="827" pageHeight="1169" math="0" shadow="0">
      <root>
        <mxCell id="HGtF7kZP9TLFGYK7RK4B-0" />
        <mxCell id="HGtF7kZP9TLFGYK7RK4B-1" parent="HGtF7kZP9TLFGYK7RK4B-0" />
      </root>
    </mxGraphModel>
  </diagram>
  <diagram id="lkdzEgCm4Jj6Q_XmARVc" name="Чтение файла">
    <mxGraphModel dx="700" dy="752" grid="1" gridSize="10" guides="1" tooltips="1" connect="1" arrows="1" fold="1" page="1" pageScale="1" pageWidth="827" pageHeight="1169" math="0" shadow="0">
      <root>
        <mxCell id="1MJjHVbaQ3-9y41DQCI_-0" />
        <mxCell id="1MJjHVbaQ3-9y41DQCI_-1" parent="1MJjHVbaQ3-9y41DQCI_-0" />
      </root>
    </mxGraphModel>
  </diagram>
  <diagram id="4JSLZnKuqwpLWqLvbrnE" name="Проверка поля">
    <mxGraphModel dx="700" dy="752" grid="1" gridSize="10" guides="1" tooltips="1" connect="1" arrows="1" fold="1" page="1" pageScale="1" pageWidth="827" pageHeight="1169" math="0" shadow="0">
      <root>
        <mxCell id="5QiChbaY37-zcEgkT61G-0" />
        <mxCell id="5QiChbaY37-zcEgkT61G-1" parent="5QiChbaY37-zcEgkT61G-0" />
      </root>
    </mxGraphModel>
  </diagram>
</mxfile>
